<svg width="30" height="30" viewBox="0 0 30 30" fill="none" xmlns="http://www.w3.org/2000/svg">
<path d="M27.7067 30H2.29335C1.02878 30 0 28.9712 0 27.7067V20.2672C0 19.7566 0.413972 19.3425 0.924665 19.3425C1.43536 19.3425 1.84933 19.7566 1.84933 20.2672V27.7067C1.84933 27.9515 2.0485 28.1507 2.29335 28.1507H27.7067C27.9515 28.1507 28.1508 27.9516 28.1508 27.7067V2.29326C28.1508 2.0485 27.9516 1.84933 27.7067 1.84933H2.29335C2.0485 1.84933 1.84933 2.0485 1.84933 2.29326V14.8349C1.84933 15.3455 1.43536 15.7596 0.924665 15.7596C0.413972 15.7596 0 15.3455 0 14.8349V2.29326C0 1.02878 1.02878 0 2.29335 0H27.7067C28.9713 0 30.0001 1.02878 30.0001 2.29326V27.7067C30 28.9712 28.9712 30 27.7067 30Z" fill="black"/>
<path d="M20.6007 8.87354H1.48178C0.664741 8.87354 -2.53967e-08 8.20889 -2.53967e-08 7.39177V4.73983C-2.53967e-08 4.22923 0.413972 3.81517 0.924665 3.81517C1.43536 3.81517 1.84933 4.22923 1.84933 4.73983V7.02421H20.2332V0.924664C20.2332 0.414064 20.6472 -6.20807e-07 21.1579 -6.20807e-07C21.6686 -6.20807e-07 22.0826 0.414064 22.0826 0.924664V7.39168C22.0826 8.20889 21.4178 8.87354 20.6007 8.87354Z" transform="translate(3.95898 17.1677)" fill="black"/>
<path d="M19.6761 2.53967e-08H7.09643H0.55711C0.249382 2.53967e-08 -2.53967e-08 0.249475 -2.53967e-08 0.557111V8.66512V13.2091H7.09643H20.2332V0.557203C20.2332 0.249475 19.9838 2.53967e-08 19.6761 2.53967e-08Z" transform="translate(4.8833 4.8833)" fill="black" fill-opacity="0.3"/>
<path d="M21.1579 15.0585H0.924665C0.413972 15.0585 -2.53967e-08 14.6445 -2.53967e-08 14.1339V1.48178C-2.53967e-08 0.664741 0.664741 2.53967e-08 1.48178 2.53967e-08H20.6009C21.4179 2.53967e-08 22.0827 0.664741 22.0827 1.48178V14.1338C22.0826 14.6445 21.6686 15.0585 21.1579 15.0585ZM1.84933 13.2092H20.2332V1.84933H1.84933V13.2092Z" transform="translate(3.95898 3.95874)" fill="black"/>
</svg>
