<svg width="44" height="60" viewBox="0 0 44 60" fill="none" xmlns="http://www.w3.org/2000/svg">
<path d="M15.9124 31.8178C15.8789 31.8178 15.8461 31.8178 15.8128 31.8175C11.2708 31.7886 6.94628 29.7786 3.94864 26.3029C1.65881 23.6441 0.309903 20.3782 0.0469938 16.8573C-0.213052 13.3741 0.609721 9.97313 2.42644 7.02236C2.73866 6.51496 3.3173 6.2448 3.89911 6.33647C4.4804 6.42771 4.95287 6.86212 5.10082 7.44176C6.00345 10.9782 7.76873 14.0095 8.48025 15.1406C8.73446 15.3518 8.92112 15.6502 8.99165 16.0031L9.00214 16.0524C9.01243 16.1002 9.02293 16.1492 9.03205 16.1984C9.16218 16.8921 8.79937 17.584 8.16124 17.8603C7.52247 18.1366 6.78178 17.9221 6.38164 17.3455C6.29605 17.2223 4.78509 15.0257 3.48561 11.8797C2.26513 16.1385 3.20541 20.8892 6.16359 24.3239C8.60592 27.1556 12.1299 28.7936 15.8311 28.8172C15.8581 28.8173 15.8853 28.8175 15.9124 28.8175C19.5853 28.8175 23.094 27.2292 25.5509 24.4515C29.9534 19.4744 29.8942 11.8045 25.4131 6.61042L23.9454 4.90595C23.3643 7.91125 22.6225 9.96763 22.5813 10.0808C22.2984 10.8577 21.4497 11.2535 20.6874 10.9653C19.9244 10.6771 19.5354 9.81375 19.8187 9.03695C19.8304 9.00455 21.0412 5.63212 21.5077 1.33527C21.572 0.744184 21.9728 0.247692 22.53 0.0690932C23.0866 -0.109074 23.695 0.0640184 24.0802 0.511164L27.628 4.63157C30.2358 7.65426 31.6974 11.53 31.7428 15.5435C31.789 19.6131 30.3675 23.4898 27.7407 26.4595C24.7255 29.8684 20.419 31.8178 15.9124 31.8178Z" transform="translate(5.9519 28.1821)" fill="#E20613"/>
<path d="M1.4748 15.9105C1.34913 15.9105 1.22133 15.894 1.09439 15.8596C0.307991 15.6462 -0.159498 14.8243 0.050066 14.0237C0.961394 10.5428 2.6869 7.25939 5.04068 4.52825L8.50793 0.510098C8.78728 0.186158 9.19028 0.0005399 9.61376 0C9.61418 0 9.6145 0 9.61493 0C10.038 0 10.4407 0.185078 10.7203 0.508262L11.156 1.01156C11.2078 1.07116 11.2544 1.13487 11.2961 1.20203C12.458 3.07376 13.4352 4.98879 14.2005 6.89356C14.5087 7.66043 14.148 8.53636 13.3947 8.85005C12.6423 9.16373 11.7813 8.79649 11.4732 8.02961C10.9248 6.66518 10.2556 5.29167 9.47748 3.9322L7.25532 6.50774C5.19976 8.89302 3.69273 11.7594 2.89785 14.7963C2.7219 15.4674 2.12609 15.9105 1.4748 15.9105Z" transform="translate(12.25 20)" fill="#E20613"/>
<path d="M10.6154 8.10628C10.6154 11.0908 8.23907 13.5104 5.30772 13.5104C2.37637 13.5104 -4.40168e-07 11.0908 -4.40168e-07 8.10628C-4.40168e-07 5.12171 5.30772 3.16348e-07 5.30772 3.16348e-07C5.30772 3.16348e-07 10.6154 5.12182 10.6154 8.10628Z" transform="translate(16.5164 44.9382)" fill="#E20613" fill-opacity="0.3"/>
<path d="M6.78103 16.5106C3.04197 16.5106 -2.58923e-07 13.4133 -2.58923e-07 9.60639C-2.58923e-07 6.15168 4.80438 1.34063 5.76757 0.411242C6.33592 -0.13708 7.22625 -0.13708 7.7947 0.411242C8.75768 1.34063 13.5623 6.15179 13.5623 9.60639C13.5622 13.4133 10.5202 16.5106 6.78103 16.5106ZM6.78103 3.62786C4.97386 5.57884 2.94694 8.27413 2.94694 9.60639C2.94694 11.759 4.66704 13.5103 6.78103 13.5103C8.89502 13.5103 10.6151 11.759 10.6151 9.60639C10.6153 8.27446 8.58841 5.57917 6.78103 3.62786Z" transform="translate(15.0432 43.4382)" fill="#E20613"/>
<path d="M11.0569 9.01852C11.0569 12.0889 8.58181 14.5779 5.52846 14.5779C2.4751 14.5779 7.96631e-07 12.0889 7.96631e-07 9.01852C7.96631e-07 3.45914 5.52846 2.57492e-07 5.52846 2.57492e-07C5.52846 2.57492e-07 11.0569 3.45914 11.0569 9.01852Z" transform="translate(16.4714 1.85327)" fill="#E20613" fill-opacity="0.3"/>
<path d="M7.37124 18.2841C3.3067 18.2841 -5.69022e-07 14.9589 -5.69022e-07 10.8716C-5.69022e-07 4.35776 6.13642 0.443232 6.3977 0.279755C6.99389 -0.0932528 7.74869 -0.0932528 8.34478 0.279755C8.60593 0.443232 14.7425 4.35776 14.7425 10.8716C14.7425 14.959 11.4359 18.2841 7.37124 18.2841ZM7.37613 4.16054C6.01103 5.30757 3.68568 7.72351 3.68568 10.8716C3.68568 12.9153 5.33909 14.5778 7.37135 14.5778C9.40362 14.5778 11.057 12.9151 11.057 10.8716C11.0568 7.69983 8.74275 5.30065 7.37613 4.16054Z" transform="translate(14.6287)" fill="#E20613"/>
<path d="M8.10832 6.6136C8.10832 8.86512 6.29316 10.6904 4.05416 10.6904C1.81516 10.6904 1.70707e-06 8.86512 1.70707e-06 6.6136C1.70707e-06 2.53676 4.05416 6.58035e-07 4.05416 6.58035e-07C4.05416 6.58035e-07 8.10832 2.53664 8.10832 6.6136Z" transform="translate(34.0488 15.4431)" fill="#E20613" fill-opacity="0.3"/>
<path d="M5.89694 14.3967C2.64536 14.3967 -4.83669e-07 11.7366 -4.83669e-07 8.46683C-4.83669e-07 3.41862 4.72238 0.405616 4.9234 0.279756C5.51937 -0.0932515 6.27452 -0.0932515 6.87048 0.279756C7.07151 0.405616 11.7939 3.41851 11.7939 8.46683C11.7939 11.7366 9.14852 14.3967 5.89694 14.3967ZM5.89671 4.20308C4.96 5.06253 3.68556 6.57894 3.68556 8.46671C3.68556 9.69296 4.67751 10.6905 5.89694 10.6905C7.11637 10.6905 8.10832 9.69296 8.10832 8.46671C8.10832 6.57976 6.83494 5.06394 5.89671 4.20308Z" transform="translate(32.2061 13.5898)" fill="#E20613"/>
<path d="M8.10833 6.6136C8.10833 8.86512 6.29316 10.6904 4.05416 10.6904C1.81516 10.6904 -7.82406e-08 8.86512 -7.82406e-08 6.6136C-7.82406e-08 2.53676 4.05416 6.58035e-07 4.05416 6.58035e-07C4.05416 6.58035e-07 8.10833 2.53664 8.10833 6.6136Z" transform="translate(1.84277 15.4431)" fill="#E20613" fill-opacity="0.3"/>
<path d="M5.89694 14.3967C2.64536 14.3967 3.98316e-07 11.7366 3.98316e-07 8.46683C3.98316e-07 3.41862 4.72238 0.405616 4.9234 0.279756C5.51937 -0.0932515 6.27452 -0.0932515 6.87048 0.279756C7.07151 0.405616 11.7939 3.41851 11.7939 8.46683C11.794 11.7366 9.14864 14.3967 5.89694 14.3967ZM5.89659 4.20308C4.95988 5.06253 3.68544 6.57894 3.68544 8.46671C3.68544 9.69296 4.6774 10.6905 5.89683 10.6905C7.11626 10.6905 8.10821 9.69296 8.10821 8.46671C8.10833 6.57976 6.83482 5.06394 5.89659 4.20308Z" transform="translate(0 13.5898)" fill="#E20613"/>
</svg>
