<svg width="30" height="24" viewBox="0 0 30 24" fill="none" xmlns="http://www.w3.org/2000/svg">
<path d="M7.38272 1.77653L0.861759 1.77653C0.385825 1.77653 0 1.37877 0 0.888263C0 0.397754 0.385825 0 0.861759 0L7.38272 5.42346e-06C7.85865 5.42346e-06 8.24448 0.397761 8.24448 0.88827C8.24448 1.37878 7.85865 1.77653 7.38272 1.77653Z" transform="translate(0 10.5435)" fill="black"/>
<path d="M6.11832 1.77652H0.861759C0.385825 1.77652 -3.73377e-08 1.37877 -3.73377e-08 0.888263C-3.73377e-08 0.397755 0.385825 2.77099e-07 0.861759 2.77099e-07H6.11838C6.59432 2.77099e-07 6.98014 0.397755 6.98014 0.888263C6.98014 1.37877 6.59426 1.77652 6.11832 1.77652Z" transform="translate(1.26465 14.585)" fill="black"/>
<path d="M3.5328 1.77652H0.861759C0.385825 1.77652 -7.46753e-08 1.37877 -7.46753e-08 0.888262C-7.46753e-08 0.397753 0.385825 8.00509e-07 0.861759 8.00509e-07H3.53286C4.0088 8.00509e-07 4.39462 0.397753 4.39462 0.888262C4.39462 1.37877 4.00874 1.77652 3.5328 1.77652Z" transform="translate(3.84961 18.6265)" fill="black"/>
<path d="M17.9023 17.6882H3.59398C1.6123 17.6882 0 16.0263 0 13.9837V5.13943C0 4.64892 0.385825 4.25116 0.861759 4.25116C1.33769 4.25116 1.72352 4.64892 1.72352 5.13943V13.9837C1.72352 15.0467 2.56258 15.9116 3.59398 15.9116H17.9023C18.9337 15.9116 19.7728 15.0468 19.7728 13.9837V0.888265C19.7728 0.397756 20.1586 2.02362e-06 20.6346 2.02362e-06C21.1105 2.02362e-06 21.4963 0.397756 21.4963 0.888265V13.9837C21.4963 16.0263 19.884 17.6882 17.9023 17.6882Z" transform="translate(6.58057 6.31201)" fill="black"/>
<path d="M23.6191 0H0V5.71686H23.6191V0Z" transform="translate(5.51855 0.888184)" fill="black" fill-opacity="0.3"/>
<path d="M24.4811 7.49364H0.861759C0.385825 7.49364 -1.26948e-07 7.09589 -1.26948e-07 6.60538V0.888263C-1.26948e-07 0.397754 0.385825 -1.9243e-08 0.861759 -1.9243e-08H24.4811C24.957 -1.9243e-08 25.3428 0.397754 25.3428 0.888263V6.60531C25.3428 7.09589 24.957 7.49364 24.4811 7.49364ZM1.72352 5.71712H23.6193V1.77653H1.72352V5.71712Z" transform="translate(4.65723)" fill="black"/>
</svg>
