<svg width="24" height="30" viewBox="0 0 24 30" fill="none" xmlns="http://www.w3.org/2000/svg">
<path d="M16.8088 22.3174H2.71494C1.21792 22.3174 1.47485e-07 21.0771 1.47485e-07 19.5524V6.74145C1.47485e-07 3.0242 2.96947 0 6.6195 0H12.9042C16.5541 0 19.5237 3.0242 19.5237 6.74145V11.1588C19.5237 11.6327 19.1463 12.0172 18.6808 12.0172C18.2153 12.0172 17.838 11.6328 17.838 11.1588V6.74145C17.838 3.97078 15.6247 1.71674 12.9042 1.71674H6.6195C3.89898 1.71674 1.68561 3.97084 1.68561 6.74145V19.5524C1.68561 20.1304 2.14732 20.6007 2.71488 20.6007H16.8087C17.3762 20.6007 17.8379 20.1304 17.8379 19.5524C17.8379 19.0785 18.2153 18.6941 18.6808 18.6941C19.1463 18.6941 19.5237 19.0785 19.5237 19.5524C19.5237 21.0771 18.3058 22.3174 16.8088 22.3174Z" transform="translate(2.15674)" fill="black"/>
<path d="M0.842864 13.7337C0.377362 13.7337 -1.96647e-07 13.3494 -1.96647e-07 12.8753V4.24119C-1.96647e-07 1.90254 1.86822 6.4373e-08 4.16444 6.4373e-08H6.93081C9.22714 6.4373e-08 11.0954 1.9026 11.0954 4.24119V6.69527C11.0954 7.16924 10.718 7.55367 10.2526 7.55367C9.78711 7.55367 9.40969 7.1693 9.40969 6.69527V4.24119C9.40969 2.84918 8.29775 1.71674 6.93081 1.71674H4.16444C2.79762 1.71674 1.68567 2.84918 1.68567 4.24119V12.8753C1.68573 13.3494 1.30837 13.7337 0.842864 13.7337Z" transform="translate(6.37109 4.29199)" fill="black"/>
<path d="M-2.0367e-07 1.43051e-07V4.10191C-2.0367e-07 5.1549 0.838203 6.00849 1.87208 6.00849H15.9658C16.9998 6.00849 17.8379 5.15484 17.8379 4.10191V1.71668V1.43051e-07H-2.0367e-07Z" transform="translate(2.99951 15.4507)" fill="black" fill-opacity="0.3"/>
<path d="M16.8088 7.72523H2.71494C1.21792 7.72523 1.47485e-07 6.48486 1.47485e-07 4.96025V0.85834C1.47485e-07 0.384375 0.377361 -3.93391e-07 0.842806 -3.93391e-07H18.6808C19.1463 -3.93391e-07 19.5237 0.384375 19.5237 0.85834V4.96025C19.5237 6.48492 18.3058 7.72523 16.8088 7.72523ZM1.68567 1.71674V4.96025C1.68567 5.53816 2.14737 6.0085 2.71494 6.0085H16.8087C17.3763 6.0085 17.838 5.53822 17.838 4.96025V1.71674H1.68567Z" transform="translate(2.15674 14.5923)" fill="black"/>
<path d="M2.94997 1.7168H0.842864C0.377362 1.7168 -5.89942e-07 1.33242 -5.89942e-07 0.858399C-5.89942e-07 0.384375 0.377362 8.01086e-07 0.842864 8.01086e-07H2.94997C3.41547 8.01086e-07 3.79283 0.384375 3.79283 0.858399C3.79283 1.33242 3.41547 1.7168 2.94997 1.7168Z" transform="translate(14.2783 17.1675)" fill="black"/>
<path d="M2.94991 1.7168H0.842806C0.377304 1.7168 -2.2474e-07 1.33242 -2.2474e-07 0.858399C-2.2474e-07 0.384375 0.377361 8.01086e-07 0.842806 8.01086e-07H2.94991C3.41541 8.01086e-07 3.79277 0.384375 3.79277 0.858399C3.79277 1.33242 3.41541 1.7168 2.94991 1.7168Z" transform="translate(5.76611 17.1675)" fill="black"/>
<path d="M0.842459 9.17287C0.643739 9.17287 0.444156 9.10174 0.283753 8.95683C-0.0646115 8.6423 -0.0966 8.09984 0.212124 7.74506L6.70194 0.288942C7.01078 -0.0657258 7.54337 -0.0984209 7.89179 0.215993C8.24015 0.530524 8.27214 1.07299 7.96342 1.42777L1.47354 8.88388C1.30693 9.07531 1.07524 9.17287 0.842459 9.17287Z" transform="translate(0 20.6006)" fill="black"/>
<path d="M11.187 1.7168H0.842806C0.377304 1.7168 1.86112e-07 1.33242 1.86112e-07 0.858398C1.86112e-07 0.384375 0.377361 3.57628e-07 0.842806 3.57628e-07H11.1868C11.6523 3.57628e-07 12.0296 0.384375 12.0296 0.858398C12.0296 1.33242 11.6524 1.7168 11.187 1.7168Z" transform="translate(3.45703 24.3662)" fill="black"/>
<path d="M16.3287 9.39937H0.842806C0.377304 9.39937 -2.80925e-08 9.01499 -2.80925e-08 8.54103C-2.80925e-08 8.06706 0.377361 7.68263 0.842806 7.68263H14.4895L9.04533 1.42786C8.73661 1.07308 8.76866 0.530616 9.11696 0.216084C9.46521 -0.0985054 9.99797 -0.0656932 10.3068 0.289033L16.7966 7.74515C16.8141 7.76513 16.8305 7.78599 16.846 7.80755L17.0088 8.03401C17.1963 8.29487 17.224 8.64099 17.0804 8.92939C16.9368 9.21778 16.6462 9.39937 16.3287 9.39937Z" transform="translate(6.82861 20.6006)" fill="black"/>
</svg>
