<svg width="26" height="30" viewBox="0 0 26 30" fill="none" xmlns="http://www.w3.org/2000/svg">
<path d="M0.833137 6.27574C0.373056 6.27574 1.72035e-07 5.90356 1.72035e-07 5.44442V0.831328C1.72035e-07 0.372188 0.373056 7.29561e-07 0.833137 7.29561e-07C1.29322 7.29561e-07 1.66628 0.372188 1.66628 0.831328V5.44442C1.66628 5.90356 1.29328 6.27574 0.833137 6.27574Z" transform="translate(8.66504 6.27588) rotate(180)" fill="black"/>
<path d="M12.1677 7.85771L17.5543 13.3817H23.5186C24.2433 13.3817 24.6077 12.5087 24.0972 11.9954L12.1677 -1.43051e-08L0.238179 11.9954C-0.272285 12.5087 0.092022 13.3817 0.816819 13.3817H6.78108L12.1677 7.85771Z" transform="translate(25.168 23.4048) rotate(180)" fill="black" fill-opacity="0.3"/>
<path d="M25.5209 18.0049L13.5914 6.00949C13.435 5.85223 13.222 5.76375 13 5.76375C12.778 5.76375 12.565 5.85223 12.4086 6.00949L5.07691 13.3816L1.69233 13.3816L13 2.01158L24.3382 13.4123C24.6624 13.7382 25.1898 13.7402 25.5164 13.4168C25.843 13.0934 25.845 12.567 25.521 12.2411L13.5914 0.245742C13.435 0.0884765 13.222 0 13 0C12.778 0 12.565 0.0884765 12.4086 0.245742L0.479031 12.2411C0.00873257 12.714 -0.129262 13.417 0.127467 14.032C0.384138 14.6469 0.981451 15.0444 1.64911 15.0444H3.42332L0.479031 18.0049C0.00873257 18.4777 -0.129262 19.1808 0.127467 19.7957C0.384138 20.4107 0.981451 20.8081 1.64911 20.8081H6.99844V29.1686C6.99844 29.6278 7.3715 29.9999 7.83158 29.9999C8.29166 29.9999 8.66472 29.6278 8.66472 29.1686V20.0908L13 15.6449L17.7895 20.5566C17.9464 20.7174 18.1618 20.8081 18.3867 20.8081H24.3509C25.0186 20.8081 25.6159 20.4107 25.8726 19.7957C26.1292 19.1807 25.9913 18.4778 25.5209 18.0049ZM18.7385 19.1454L13.5971 13.8731C13.4402 13.7123 13.2249 13.6216 13 13.6216C12.7751 13.6216 12.5598 13.7123 12.4029 13.8731L7.26151 19.1454L1.69233 19.1453L13 7.77533L24.3075 19.1456H18.7385V19.1454Z" transform="translate(26 30) rotate(180)" fill="black"/>
<path d="M0.833137 9.58154C0.373056 9.58154 -2.07876e-07 9.20936 -2.07876e-07 8.75022V0.831328C-2.07876e-07 0.372187 0.373056 2.00272e-07 0.833137 2.00272e-07C1.29322 2.00272e-07 1.66627 0.372187 1.66627 0.831328V8.75022C1.66627 9.20936 1.29328 9.58154 0.833137 9.58154Z" transform="translate(13.833 11.3838) rotate(180)" fill="black"/>
</svg>
