<svg width="42" height="60" viewBox="0 0 42 60" fill="none" xmlns="http://www.w3.org/2000/svg">
<path d="M16.926 60H8.92456C7.33498 60 6.04166 58.6831 6.04166 57.0645V19.2664H2.88586C1.78164 19.2664 0.791693 18.6404 0.301842 17.6326C-0.187759 16.625 -0.0757253 15.4438 0.594104 14.5499L10.6337 1.15464C11.1835 0.420957 12.0187 -9.50881e-08 12.9252 -9.50881e-08C13.8318 -9.50881e-08 14.6671 0.420957 15.2171 1.1549L25.2564 14.5499C25.9261 15.4433 26.0385 16.6245 25.5489 17.6324C25.0592 18.6403 24.0692 19.2664 22.9649 19.2664H17.9739C16.9606 19.2664 16.1389 18.4299 16.1389 17.3979C16.1389 16.3658 16.9606 15.5294 17.9739 15.5294H21.3739L12.9253 4.25675L4.47669 15.5295H7.87667C8.88997 15.5295 9.71167 16.3659 9.71167 17.398V56.2633H16.1391V25.9175C16.1391 24.8856 16.9608 24.049 17.9741 24.049C18.9874 24.049 19.8091 24.8854 19.8091 25.9175V57.0647C19.8089 58.6832 18.5156 60 16.926 60Z" transform="translate(16.1494)" fill="#E20613"/>
<path d="M9.30028e-07 1.06702V33.1484C9.30028e-07 33.7377 0.469243 34.2154 1.0479 34.2154H9.04938C9.62815 34.2154 10.0973 33.7376 10.0973 33.1484V1.06702C10.0973 0.477677 9.62803 -6.88749e-07 9.04938 -6.88749e-07H1.0479C0.469243 -0.000127866 9.30028e-07 0.477677 9.30028e-07 1.06702Z" transform="translate(1.83496 23.9163)" fill="#E20613" fill-opacity="0.3"/>
<path d="M10.8843 37.9523H2.88265C1.2932 37.9523 -2.59188e-07 36.6353 -2.59188e-07 35.0168V2.93551C-2.59188e-07 1.31692 1.29332 -8.84901e-07 2.88265 -8.84901e-07H10.8841C12.4737 -8.84901e-07 13.767 1.31692 13.767 2.93551V35.0169C13.7672 36.6355 12.474 37.9523 10.8843 37.9523ZM3.66988 34.2154H10.0971V3.73685H3.66988V34.2154Z" transform="translate(0 22.0476)" fill="#E20613"/>
</svg>
