<svg width="30" height="24" viewBox="0 0 30 24" fill="none" xmlns="http://www.w3.org/2000/svg">
<path d="M26.7111 24H21.6871C21.1527 24 20.7193 23.5707 20.7193 23.041C20.7193 22.5114 21.1527 22.0821 21.6871 22.0821H26.7111C27.4574 22.0821 28.0646 21.4804 28.0646 20.7409V3.25902C28.0646 2.51948 27.4574 1.91784 26.7111 1.91784H3.28894C2.54261 1.91784 1.93545 2.51948 1.93545 3.25902V20.7409C1.93545 21.4804 2.54261 22.0821 3.28894 22.0821H16.355C16.8894 22.0821 17.3228 22.5114 17.3228 23.041C17.3228 23.5707 16.8894 24 16.355 24H3.28894C1.47538 24 -1.52539e-07 22.538 -1.52539e-07 20.741V3.25902C-1.52539e-07 1.46196 1.47545 -3.80037e-07 3.28894 -3.80037e-07H26.7111C28.5246 -3.80037e-07 30 1.46203 30 3.25902V20.7409C30 22.5379 28.5245 24 26.7111 24Z" fill="black"/>
<path d="M1.69017 15.0362C0.760541 15.0362 -2.70212e-07 14.2826 -2.70212e-07 13.3614V1.67479C-2.70212e-07 0.753622 0.760541 -1.38195e-07 1.69017 -1.38195e-07C2.6198 -1.38195e-07 3.38034 0.753622 3.38034 1.67479V13.3613C3.38034 14.2825 2.61966 15.0362 1.69017 15.0362Z" transform="translate(5.36475 4.48193)" fill="black" fill-opacity="0.3"/>
<path d="M2.65793 16.9539C1.19226 16.9539 1.7433e-07 15.7724 1.7433e-07 14.3202V2.63361C1.7433e-07 1.18141 1.19226 2.24567e-07 2.65793 2.24567e-07C4.1236 2.24567e-07 5.31586 1.18141 5.31586 2.63361V14.3202C5.31572 15.7725 4.12346 16.9539 2.65793 16.9539ZM2.65793 1.91798C2.25963 1.91798 1.93552 2.23914 1.93552 2.63375V14.3202C1.93552 14.7149 2.25963 15.0361 2.65793 15.0361C3.05623 15.0361 3.38034 14.7149 3.38034 14.3202V2.63361C3.38027 2.239 3.05623 1.91798 2.65793 1.91798Z" transform="translate(4.39648 3.52295)" fill="black"/>
<path d="M1.69017 15.0362C0.760542 15.0362 -4.70691e-07 14.2826 -4.70691e-07 13.3614V1.67479C-4.70691e-07 0.753622 0.760542 -1.38195e-07 1.69017 -1.38195e-07C2.6198 -1.38195e-07 3.38034 0.753622 3.38034 1.67479V13.3613C3.38027 14.2825 2.61973 15.0362 1.69017 15.0362Z" transform="translate(13.3096 4.48193)" fill="black" fill-opacity="0.3"/>
<path d="M2.65793 16.9539C1.19226 16.9539 5.57856e-07 15.7724 5.57856e-07 14.3202V2.63361C5.57856e-07 1.18141 1.19226 2.24567e-07 2.65793 2.24567e-07C4.1236 2.24567e-07 5.31586 1.18141 5.31586 2.63361V14.3202C5.31586 15.7725 4.1236 16.9539 2.65793 16.9539ZM2.65793 1.91798C2.25963 1.91798 1.93552 2.23914 1.93552 2.63375V14.3202C1.93552 14.7149 2.25963 15.0361 2.65793 15.0361C3.05623 15.0361 3.38034 14.7149 3.38034 14.3202V2.63361C3.38034 2.239 3.05623 1.91798 2.65793 1.91798Z" transform="translate(12.3418 3.52295)" fill="black"/>
<path d="M1.69017 15.0362C0.760541 15.0362 9.2395e-07 14.2826 9.2395e-07 13.3614V1.67479C9.2395e-07 0.753622 0.760541 -1.38195e-07 1.69017 -1.38195e-07C2.6198 -1.38195e-07 3.38034 0.753622 3.38034 1.67479V13.3613C3.3802 14.2825 2.61966 15.0362 1.69017 15.0362Z" transform="translate(21.2549 4.48193)" fill="black" fill-opacity="0.3"/>
<path d="M2.65793 16.9539C1.19226 16.9539 2.78928e-07 15.7724 2.78928e-07 14.3202V2.63361C2.78928e-07 1.18141 1.19226 2.24567e-07 2.65793 2.24567e-07C4.1236 2.24567e-07 5.31586 1.18141 5.31586 2.63361V14.3202C5.31579 15.7725 4.12346 16.9539 2.65793 16.9539ZM2.65793 1.91798C2.25963 1.91798 1.93552 2.23914 1.93552 2.63375V14.3202C1.93552 14.7149 2.25963 15.0361 2.65793 15.0361C3.05623 15.0361 3.38034 14.7149 3.38034 14.3202V2.63361C3.38034 2.239 3.05623 1.91798 2.65793 1.91798Z" transform="translate(20.2871 3.52295)" fill="black"/>
</svg>
