<svg width="43" height="60" viewBox="0 0 43 60" fill="none" xmlns="http://www.w3.org/2000/svg">
<path d="M11.4912 23.0122C17.8376 23.0122 22.9824 17.8607 22.9824 11.5061C22.9824 5.15145 17.8376 0 11.4912 0C5.14478 0 0 5.15145 0 11.5061C0 17.8607 5.14478 23.0122 11.4912 23.0122Z" transform="translate(10.0084 9.51343)" fill="#E20613" fill-opacity="0.3"/>
<path d="M13.2722 26.5791C5.95386 26.5791 1.42866e-08 20.6175 1.42866e-08 13.2897C1.42866e-08 5.96181 5.95386 3.36171e-07 13.2722 3.36171e-07C20.5906 3.36171e-07 26.5445 5.96157 26.5445 13.2897C26.5445 20.6174 20.5906 26.5791 13.2722 26.5791ZM13.2722 3.56778C7.91854 3.56778 3.56316 7.92904 3.56316 13.2897C3.56316 18.6503 7.91854 23.0113 13.2722 23.0113C18.6259 23.0113 22.9813 18.6503 22.9813 13.2897C22.9813 7.92904 18.6259 3.56778 13.2722 3.56778Z" transform="translate(8.22778 7.73047)" fill="#E20613"/>
<path d="M35.4781 -5.72206e-08H26.9673L19.7185 7.78759C19.7185 7.78759 16.3785 4.7127 12.4891 -5.72206e-08H3.95898L-2.64302e-07 11.8845H39.4367L35.4781 -5.72206e-08Z" transform="translate(1.78149 46.3315)" fill="#E20613" fill-opacity="0.3"/>
<path d="M42.9085 47.0329L38.9496 35.1484C38.707 34.4201 38.0262 33.9289 37.2596 33.9289H28.7488C28.2546 33.9289 27.7825 34.1345 27.4456 34.4966L21.4369 40.9517C17.2495 36.7587 4.14002 22.6462 4.14002 10.3316C4.14002 7.60715 4.7513 4.99925 5.95654 2.58085C6.39601 1.69948 6.03846 0.628031 5.15823 0.188109C4.27719 -0.251814 3.20771 0.106194 2.76859 0.98768C1.3143 3.90519 0.576859 7.04922 0.576859 10.3318C0.576859 18.6479 5.59185 27.3461 10.5667 33.929H5.7406C4.97378 33.929 4.29322 34.4202 4.0506 35.1485L0.0915112 47.0329C-0.0896605 47.5767 0.00139306 48.1748 0.336116 48.6401C0.671073 49.1053 1.20874 49.3811 1.78151 49.3811H41.2184C41.7912 49.3811 42.3289 49.1054 42.6638 48.6401C42.9987 48.175 43.0896 47.5767 42.9085 47.0329ZM4.25378 45.8134L7.02437 37.4967H13.4158C16.9851 41.7394 19.9841 44.5281 20.2944 44.8137C20.3382 44.854 20.3837 44.8915 20.4301 44.9266C20.4471 44.9395 20.465 44.9503 20.4823 44.9623C20.5124 44.9834 20.5424 45.0047 20.5735 45.0237C20.5956 45.0373 20.6182 45.0486 20.6407 45.0609C20.6681 45.076 20.6952 45.0918 20.7233 45.1053C20.7481 45.1173 20.7732 45.1275 20.7983 45.1382C20.825 45.1495 20.8516 45.1615 20.8787 45.1717C20.905 45.1815 20.9315 45.1894 20.958 45.1979C20.9849 45.2065 21.0116 45.2154 21.0387 45.2228C21.0656 45.2299 21.0926 45.2357 21.1196 45.2415C21.1472 45.2476 21.1745 45.2537 21.2022 45.2583C21.2291 45.263 21.2562 45.2661 21.2833 45.2693C21.3115 45.2727 21.3396 45.2761 21.368 45.2782C21.3949 45.2802 21.4216 45.281 21.4485 45.2819C21.4658 45.2825 21.4829 45.2843 21.5001 45.2843C21.5117 45.2843 21.5233 45.2829 21.5348 45.2827C21.5612 45.2821 21.5874 45.2807 21.6137 45.2791C21.6428 45.2774 21.6718 45.2748 21.7008 45.2716C21.727 45.2686 21.7528 45.2651 21.7789 45.261C21.8078 45.2563 21.8364 45.2511 21.8649 45.2452C21.8909 45.2398 21.9167 45.2339 21.9424 45.2273C21.9703 45.2202 21.998 45.2122 22.0256 45.2037C22.0516 45.1956 22.0774 45.1873 22.1031 45.1781C22.1296 45.1685 22.1558 45.158 22.1819 45.1471C22.2079 45.1364 22.2338 45.1253 22.2594 45.1133C22.2843 45.1016 22.3088 45.0887 22.3331 45.0757C22.359 45.062 22.3848 45.0483 22.4099 45.0333C22.4332 45.0193 22.456 45.004 22.4789 44.989C22.5038 44.9726 22.5287 44.9562 22.5532 44.9384C22.576 44.9216 22.5981 44.9032 22.6201 44.8852C22.6427 44.8668 22.6655 44.8487 22.6874 44.8291C22.6922 44.8248 22.6976 44.8211 22.7024 44.8166C22.831 44.6987 25.8834 41.8897 29.5821 37.4969H35.9753L38.7459 45.8136H4.25378V45.8134Z" transform="translate(0 10.6189)" fill="#E20613"/>
<path d="M2.8364 6.9306C5.82773 4.73075 9.37755 3.56778 13.1015 3.56778C22.6738 3.56778 30.4616 11.3656 30.4616 20.9504C30.4616 26.1795 28.134 32.2894 23.5431 39.1113C22.9933 39.9283 23.2091 41.0368 24.0251 41.5875C24.3304 41.7935 24.6764 41.8922 25.0191 41.8922C25.5917 41.8922 26.1541 41.6162 26.4982 41.1049C31.4924 33.6835 34.0249 26.9027 34.0249 20.9504C34.0249 9.39846 24.6387 0 13.1015 0C8.6133 0 4.33423 1.40215 0.727065 4.05516C-0.0659713 4.63829 -0.236611 5.75486 0.34576 6.54892C0.928599 7.34298 2.0436 7.51373 2.8364 6.9306Z" transform="translate(8.39844)" fill="#E20613"/>
</svg>
