<svg width="30" height="60" viewBox="0 0 30 60" fill="none" xmlns="http://www.w3.org/2000/svg">
<path d="M6.88857 14.0491C10.693 14.0491 13.7771 10.9041 13.7771 7.02457C13.7771 3.14501 10.693 0 6.88857 0C3.08412 0 0 3.14501 0 7.02457C0 10.9041 3.08412 14.0491 6.88857 14.0491Z" transform="translate(8.11133 37.6787)" fill="#E20613" fill-opacity="0.3"/>
<path d="M8.56374 17.4656C3.84173 17.4656 -4.90986e-07 13.548 -4.90986e-07 8.73281C-4.90986e-07 3.91758 3.84173 -1.31607e-06 8.56374 -1.31607e-06C13.286 -1.31607e-06 17.1275 3.91758 17.1275 8.73281C17.1275 13.548 13.2858 17.4656 8.56374 17.4656ZM8.56374 3.41672C5.68917 3.41672 3.35057 5.80149 3.35057 8.73281C3.35057 11.6641 5.68917 14.0489 8.56374 14.0489C11.4383 14.0489 13.7769 11.6641 13.7769 8.73281C13.7769 5.8016 11.4383 3.41672 8.56374 3.41672Z" transform="translate(6.43628 35.9707)" fill="#E20613"/>
<path d="M28.2546 37.5394C27.8203 36.7062 26.8061 36.3899 25.9892 36.8325C25.1722 37.2753 24.862 38.3096 25.2961 39.1426C26.1815 40.8415 26.6495 42.7646 26.6495 44.7037C26.6495 47.93 25.4028 50.9486 23.1389 53.2031C20.876 55.4569 17.8838 56.6539 14.7173 56.5798C8.44137 56.4286 3.34219 51.0936 3.35058 44.6873C3.35644 40.1674 5.82662 36.1011 9.79672 34.0752C10.3641 33.7859 10.7223 33.1944 10.7223 32.5474V6.89719C10.7223 4.97801 12.2535 3.4166 14.1355 3.4166H15.8643C17.7463 3.4166 19.2775 4.97801 19.2775 6.89719V31.4827C19.2775 32.4261 20.0277 33.191 20.9528 33.191C21.8779 33.191 22.6281 32.4263 22.6281 31.4827V29.4366H26.6599C27.585 29.4366 28.3352 28.6718 28.3352 27.7282C28.3352 26.7846 27.585 26.0198 26.6599 26.0198H22.6281V23.3605H24.2128C25.1379 23.3605 25.8881 22.5957 25.8881 21.6521C25.8881 20.7087 25.1379 19.9438 24.2128 19.9438H22.6281V17.2845H26.6599C27.585 17.2845 28.3352 16.5197 28.3352 15.5761C28.3352 14.6325 27.585 13.8677 26.6599 13.8677H22.6281V11.2085H24.2128C25.1379 11.2085 25.8881 10.4438 25.8881 9.50016C25.8881 8.55656 25.1379 7.7918 24.2128 7.7918H22.6281V6.89719C22.6281 3.0941 19.594 0 15.8644 0H14.1356C10.4061 0 7.37193 3.0941 7.37193 6.89719V31.5334C2.80587 34.2773 0.00725342 39.2228 1.35439e-05 44.683C-0.0109037 52.9316 6.55578 59.801 14.638 59.9955C14.7605 59.9986 14.8821 60 15.0043 60C18.9454 59.9999 22.6536 58.4625 25.4799 55.6475C28.3948 52.7446 30 48.8579 30 44.7036C30 42.2075 29.3964 39.7301 28.2546 37.5394Z" fill="#E20613"/>
<path d="M1.67528 25.4537C0.750074 25.4537 -3.36676e-07 24.6889 -3.36676e-07 23.7454V1.70836C-3.36676e-07 0.764883 0.749959 3.86238e-07 1.67528 3.86238e-07C2.60038 3.86238e-07 3.35057 0.764765 3.35057 1.70836V23.7456C3.35057 24.6889 2.60038 25.4537 1.67528 25.4537Z" transform="translate(13.3247 7.79224)" fill="#E20613"/>
</svg>
