<svg width="23" height="30" viewBox="0 0 23 30" fill="none" xmlns="http://www.w3.org/2000/svg">
<path d="M16.121 9.85768V5.96735V2.07703H18.7076V4.29153e-08H-2.17169e-08V11.4596C-2.17169e-08 12.9954 1.25998 14.2404 2.81434 14.2404H15.8934C17.4478 14.2404 18.7077 12.9954 18.7077 11.4596V9.85762H16.1211V9.85768H16.121ZM9.35378 8.25819C8.1448 8.25819 7.16466 7.28981 7.16466 6.0952C7.16466 4.90065 8.14474 3.93222 9.35378 3.93222C10.5628 3.93222 11.5429 4.9006 11.5429 6.0952C11.543 7.28975 10.5628 8.25819 9.35378 8.25819Z" transform="translate(0.853027 14.917)" fill="black" fill-opacity="0.3"/>
<path d="M22.1472 2.07697H20.4135V0.842694C20.4135 0.377284 20.0317 -1.78814e-07 19.5606 -1.78814e-07H0.852878C0.381844 -1.78814e-07 -1.99072e-08 0.377284 -1.99072e-08 0.842694V12.3024C-1.99072e-08 14.3003 1.64515 15.9258 3.66722 15.9258H16.7463C18.7683 15.9258 20.4135 14.3004 20.4135 12.3024V10.7004C20.4135 10.235 20.0317 9.85768 19.5606 9.85768H17.8269V7.6528H21.2942V9.11559C21.2942 9.581 21.6761 9.95828 22.1471 9.95828C22.6182 9.95828 23 9.581 23 9.11559V6.81004V2.91972C23.0001 2.45425 22.6182 2.07697 22.1472 2.07697ZM18.7076 11.543V12.3023C18.7076 13.3709 17.8277 14.2403 16.7462 14.2403H3.66716C2.58561 14.2403 1.70576 13.371 1.70576 12.3023V1.68545H18.7077V2.07697H16.974C16.503 2.07697 16.1211 2.45425 16.1211 2.91966V6.80999V10.7003C16.1211 11.1657 16.503 11.543 16.974 11.543H18.7076H18.7076ZM17.8268 5.96729V3.76241H19.5604H21.2941V5.96729H17.8268Z" transform="translate(0 14.0742)" fill="black"/>
<path d="M3.04206 -5.57898e-07C1.36465 -5.57898e-07 3.18515e-07 1.34836 3.18515e-07 3.00574C3.18515e-07 4.3705 0.925759 5.52497 2.18912 5.8903V7.30399C2.18912 7.7694 2.57097 8.14668 3.042 8.14668C3.51303 8.14668 3.89488 7.7694 3.89488 7.30399V5.8903C5.1583 5.52497 6.084 4.37056 6.084 3.00574C6.08412 1.34836 4.71947 -5.57898e-07 3.04206 -5.57898e-07ZM3.04206 4.32591C2.30524 4.32591 1.70581 3.73365 1.70581 3.00562C1.70581 2.27759 2.30524 1.68533 3.04206 1.68533C3.77888 1.68533 4.37831 2.27759 4.37831 3.00562C4.37831 3.73365 3.77888 4.32591 3.04206 4.32591Z" transform="translate(7.16455 18.0063)" fill="black"/>
<path d="M12.7935 12.4735C12.3225 12.4735 11.9406 12.0962 11.9406 11.6308V6.74178C11.9406 3.95372 9.64495 1.68545 6.8232 1.68545C4.00144 1.68545 1.70575 3.95372 1.70575 6.74178V11.6307C1.70575 12.0961 1.32391 12.4734 0.852878 12.4734C0.381844 12.4734 2.2527e-07 12.0961 2.2527e-07 11.6307V6.74178C-5.90765e-05 3.02437 3.06086 0 6.8232 0C10.5855 0 13.6465 3.02437 13.6465 6.74178V11.6307C13.6465 12.0962 13.2646 12.4735 12.7935 12.4735Z" transform="translate(3.3833)" fill="black"/>
</svg>
