<svg width="52" height="60" viewBox="0 0 52 60" fill="none" xmlns="http://www.w3.org/2000/svg">
<path d="M1.66627 12.5515C0.746111 12.5515 3.4407e-07 11.8071 3.4407e-07 10.8888V1.66266C3.4407e-07 0.744375 0.746111 1.45912e-06 1.66627 1.45912e-06C2.58644 1.45912e-06 3.33255 0.744375 3.33255 1.66266V10.8888C3.33255 11.8071 2.58655 12.5515 1.66627 12.5515Z" transform="translate(17.3296 12.5515) rotate(180)" fill="#E20613"/>
<path d="M24.3354 15.7154L35.1086 26.7634H47.0372C48.4866 26.7634 49.2155 25.0173 48.1944 23.9907L24.3354 -2.86102e-08L0.476358 23.9907C-0.54457 25.0174 0.184044 26.7634 1.63364 26.7634H13.5622L24.3354 15.7154Z" transform="translate(50.3354 46.8098) rotate(180)" fill="#E20613" fill-opacity="0.3"/>
<path d="M51.0418 36.0097L27.1828 12.019C26.87 11.7045 26.444 11.5275 26 11.5275C25.5559 11.5275 25.13 11.7045 24.8172 12.019L10.1538 26.7633L3.38466 26.7632L26 4.02316L48.6764 26.8246C49.3249 27.4764 50.3795 27.4805 51.0329 26.8336C51.6861 26.1868 51.6901 25.134 51.0419 24.4822L27.1829 0.491484C26.87 0.176953 26.444 0 26 0C25.5559 0 25.13 0.176953 24.8171 0.491484L0.958062 24.4822C0.0174651 25.4279 -0.258525 26.8341 0.254934 28.0639C0.768275 29.2938 1.9629 30.0887 3.29822 30.0887H6.84663L0.958062 36.0097C0.0174651 36.9554 -0.258525 38.3616 0.254934 39.5914C0.768275 40.8213 1.9629 41.6162 3.29822 41.6162H13.9969V58.3372C13.9969 59.2555 14.743 59.9999 15.6632 59.9999C16.5833 59.9999 17.3294 59.2555 17.3294 58.3372V40.1816L26 31.2899L35.5791 41.1131C35.8929 41.4348 36.3235 41.6162 36.7733 41.6162H48.7019C50.0372 41.6162 51.2318 40.8214 51.7452 39.5914C52.2585 38.3614 51.9825 36.9557 51.0418 36.0097ZM37.4769 38.2909L27.1943 27.7463C26.8805 27.4246 26.4498 27.2432 26 27.2432C25.5503 27.2432 25.1195 27.4246 24.8057 27.7463L14.523 38.2909L3.38466 38.2905L26 15.5507L48.6151 38.2911H37.4769V38.2909Z" transform="translate(52 60) rotate(180)" fill="#E20613"/>
<path d="M1.66627 19.1631C0.746112 19.1631 -4.15751e-07 18.4187 -4.15751e-07 17.5004V1.66266C-4.15751e-07 0.744374 0.746112 4.00543e-07 1.66627 4.00543e-07C2.58644 4.00543e-07 3.33255 0.744374 3.33255 1.66266V17.5004C3.33255 18.4187 2.58655 19.1631 1.66627 19.1631Z" transform="translate(27.6663 22.7676) rotate(180)" fill="#E20613"/>
</svg>
