<svg width="18" height="30" viewBox="0 0 18 30" fill="none" xmlns="http://www.w3.org/2000/svg">
<path d="M4.60534e-07 0.873188V27.1268C4.60534e-07 27.6091 0.232362 28 0.518901 28H4.4811C4.7677 28 5 27.609 5 27.1268V0.873188C5 0.390905 4.76764 -5.63634e-07 4.4811 -5.63634e-07H0.518901C0.232362 -0.000104639 4.60534e-07 0.390905 4.60534e-07 0.873188Z" transform="translate(1 1)" fill="black" fill-opacity="0.3"/>
<path d="M5.44213 29.8683H1.44133C0.646598 29.8683 0 29.2098 0 28.4005V1.46774C0 0.658442 0.646661 -1.88351e-05 1.44133 -1.88351e-05H5.44206C6.23685 -1.88351e-05 6.88351 0.658442 6.88351 1.46774L6.88351 28.4006C6.88358 29.2099 6.23698 29.8683 5.44213 29.8683ZM1.83494 27.9998H5.04857L5.04857 1.86841H1.83494L1.83494 27.9998Z" transform="translate(0 0.131592)" fill="black"/>
<path d="M5.44213 29.8683H1.44133C0.646598 29.8683 0 29.2098 0 28.4005V1.46774C0 0.658442 0.646661 -1.88351e-05 1.44133 -1.88351e-05H5.44206C6.23685 -1.88351e-05 6.88351 0.658442 6.88351 1.46774L6.88351 28.4006C6.88358 29.2099 6.23698 29.8683 5.44213 29.8683ZM1.83494 27.9998H5.04857L5.04857 1.86841H1.83494L1.83494 27.9998Z" transform="translate(11 0.131592)" fill="black"/>
</svg>
