<svg width="22" height="30" viewBox="0 0 22 30" fill="none" xmlns="http://www.w3.org/2000/svg">
<path d="M7.95618 15.9089C7.93947 15.9089 7.92303 15.9089 7.90638 15.9088C5.63538 15.8943 3.47314 14.8893 1.97432 13.1514C0.829406 11.822 0.154952 10.1891 0.0234969 8.42865C-0.106526 6.68704 0.30486 4.98657 1.21322 3.51118C1.36933 3.25748 1.65865 3.1224 1.94956 3.16824C2.2402 3.21386 2.47644 3.43106 2.55041 3.72088C3.00172 5.48911 3.88437 7.00477 4.24013 7.57031C4.36723 7.67592 4.46056 7.82509 4.49582 8.00153L4.50107 8.02621C4.50622 8.05012 4.51147 8.07458 4.51603 8.0992C4.58109 8.44603 4.39968 8.792 4.08062 8.93016C3.76123 9.06832 3.39089 8.96104 3.19082 8.67274C3.14803 8.61113 2.39255 7.51287 1.7428 5.93987C1.13256 8.06924 1.6027 10.4446 3.0818 12.162C4.30296 13.5778 6.06496 14.3968 7.91556 14.4086C7.92903 14.4086 7.94265 14.4087 7.95618 14.4087C9.79267 14.4087 11.547 13.6146 12.7755 12.2258C14.9767 9.7372 14.9471 5.90224 12.7065 3.30521L11.9727 2.45298C11.6821 3.95563 11.3113 4.98381 11.2906 5.04039C11.1492 5.42885 10.7248 5.62673 10.3437 5.48263C9.9622 5.33853 9.7677 4.90688 9.90933 4.51847C9.91522 4.50228 10.5206 2.81606 10.7538 0.667634C10.786 0.372092 10.9864 0.123846 11.265 0.0345466C11.5433 -0.0545369 11.8475 0.0320092 12.0401 0.255582L13.814 2.31579C15.1179 3.82713 15.8487 5.765 15.8714 7.77175C15.8945 9.80653 15.1838 11.7449 13.8704 13.2298C12.3627 14.9342 10.2095 15.9089 7.95618 15.9089Z" transform="translate(2.97607 14.0911)" fill="black"/>
<path d="M0.737402 7.95527C0.674564 7.95527 0.610667 7.94701 0.547193 7.92979C0.153996 7.8231 -0.079749 7.41213 0.025033 7.01185C0.480697 5.27142 1.34345 3.6297 2.52034 2.26413L4.25396 0.255049C4.39364 0.0930788 4.59514 0.00026995 4.80688 0C4.80709 0 4.80725 0 4.80746 0C5.01899 0 5.22033 0.0925389 5.36017 0.254131L5.578 0.505779C5.60388 0.535581 5.62721 0.567435 5.64805 0.601017C6.22902 1.53688 6.71761 2.49439 7.10026 3.44678C7.25436 3.83022 7.07401 4.26818 6.69736 4.42502C6.32113 4.58186 5.89065 4.39824 5.73661 4.01481C5.4624 3.33259 5.1278 2.64584 4.73874 1.9661L3.62766 3.25387C2.59988 4.44651 1.84636 5.87968 1.44892 7.39815C1.36095 7.7337 1.06304 7.95527 0.737402 7.95527Z" transform="translate(6.125 10)" fill="black"/>
<path d="M5.30772 4.05314C5.30772 5.54542 4.11954 6.75518 2.65386 6.75518C1.18818 6.75518 -2.20084e-07 5.54542 -2.20084e-07 4.05314C-2.20084e-07 2.56086 2.65386 1.58174e-07 2.65386 1.58174e-07C2.65386 1.58174e-07 5.30772 2.56091 5.30772 4.05314Z" transform="translate(8.2583 22.4692)" fill="black" fill-opacity="0.3"/>
<path d="M3.39052 8.25532C1.52098 8.25532 -1.29461e-07 6.70667 -1.29461e-07 4.8032C-1.29461e-07 3.07584 2.40219 0.670313 2.88379 0.205621C3.16796 -0.0685402 3.61312 -0.0685402 3.89735 0.205621C4.37884 0.670313 6.78114 3.07589 6.78114 4.8032C6.78108 6.70667 5.2601 8.25532 3.39052 8.25532ZM3.39052 1.81393C2.48693 2.78942 1.47347 4.13707 1.47347 4.8032C1.47347 5.87949 2.33352 6.75515 3.39052 6.75515C4.44751 6.75515 5.30756 5.87949 5.30756 4.8032C5.30767 4.13723 4.29421 2.78958 3.39052 1.81393Z" transform="translate(7.52148 21.7192)" fill="black"/>
<path d="M5.52846 4.50926C5.52846 6.04447 4.2909 7.28895 2.76423 7.28895C1.23755 7.28895 3.98316e-07 6.04447 3.98316e-07 4.50926C3.98316e-07 1.72957 2.76423 1.28746e-07 2.76423 1.28746e-07C2.76423 1.28746e-07 5.52846 1.72957 5.52846 4.50926Z" transform="translate(8.23535 0.926758)" fill="black" fill-opacity="0.3"/>
<path d="M3.68562 9.14205C1.65335 9.14205 -2.84511e-07 7.47945 -2.84511e-07 5.43582C-2.84511e-07 2.17888 3.06821 0.221616 3.19885 0.139878C3.49695 -0.0466264 3.87435 -0.0466264 4.17239 0.139878C4.30297 0.221616 7.37124 2.17888 7.37124 5.43582C7.37124 7.47951 5.71794 9.14205 3.68562 9.14205ZM3.68807 2.08027C3.00552 2.65378 1.84284 3.86175 1.84284 5.43582C1.84284 6.45763 2.66954 7.2889 3.68568 7.2889C4.70181 7.2889 5.52851 6.45757 5.52851 5.43582C5.5284 3.84992 4.37137 2.65033 3.68807 2.08027Z" transform="translate(7.31445)" fill="black"/>
<path d="M4.05416 3.3068C4.05416 4.43256 3.14658 5.34522 2.02708 5.34522C0.90758 5.34522 8.53533e-07 4.43256 8.53533e-07 3.3068C8.53533e-07 1.26838 2.02708 3.29018e-07 2.02708 3.29018e-07C2.02708 3.29018e-07 4.05416 1.26832 4.05416 3.3068Z" transform="translate(17.0244 7.72168)" fill="black" fill-opacity="0.3"/>
<path d="M2.94847 7.19837C1.32268 7.19837 -2.41834e-07 5.8683 -2.41834e-07 4.23341C-2.41834e-07 1.70931 2.36119 0.202808 2.4617 0.139878C2.75968 -0.0466258 3.13726 -0.0466258 3.43524 0.139878C3.53575 0.202808 5.89694 1.70925 5.89694 4.23341C5.89694 5.8683 4.57426 7.19837 2.94847 7.19837ZM2.94835 2.10154C2.48 2.53127 1.84278 3.28947 1.84278 4.23335C1.84278 4.84648 2.33876 5.34523 2.94847 5.34523C3.55819 5.34523 4.05416 4.84648 4.05416 4.23335C4.05416 3.28988 3.41747 2.53197 2.94835 2.10154Z" transform="translate(16.103 6.79492)" fill="black"/>
<path d="M4.05416 3.3068C4.05416 4.43256 3.14658 5.34522 2.02708 5.34522C0.907581 5.34522 -3.91203e-08 4.43256 -3.91203e-08 3.3068C-3.91203e-08 1.26838 2.02708 3.29018e-07 2.02708 3.29018e-07C2.02708 3.29018e-07 4.05416 1.26832 4.05416 3.3068Z" transform="translate(0.921387 7.72168)" fill="black" fill-opacity="0.3"/>
<path d="M2.94847 7.19837C1.32268 7.19837 1.99158e-07 5.8683 1.99158e-07 4.23341C1.99158e-07 1.70931 2.36119 0.202808 2.4617 0.139878C2.75968 -0.0466258 3.13726 -0.0466258 3.43524 0.139878C3.53575 0.202808 5.89694 1.70925 5.89694 4.23341C5.897 5.8683 4.57432 7.19837 2.94847 7.19837ZM2.9483 2.10154C2.47994 2.53127 1.84272 3.28947 1.84272 4.23335C1.84272 4.84648 2.3387 5.34523 2.94841 5.34523C3.55813 5.34523 4.0541 4.84648 4.0541 4.23335C4.05416 3.28988 3.41741 2.53197 2.9483 2.10154Z" transform="translate(0 6.79492)" fill="black"/>
</svg>
