<svg width="21" height="30" viewBox="0 0 21 30" fill="none" xmlns="http://www.w3.org/2000/svg">
<path d="M5.61197 11.5061C8.71138 11.5061 11.2239 8.93035 11.2239 5.75304C11.2239 2.57572 8.71138 0 5.61197 0C2.51256 0 0 2.57572 0 5.75304C0 8.93035 2.51256 11.5061 5.61197 11.5061Z" transform="translate(4.8877 4.75684)" fill="#626468" fill-opacity="0.3"/>
<path d="M6.48179 13.2896C2.9077 13.2896 6.97719e-09 10.3088 6.97719e-09 6.64484C6.97719e-09 2.9809 2.9077 1.68085e-07 6.48179 1.68085e-07C10.0559 1.68085e-07 12.9636 2.98079 12.9636 6.64484C12.9636 10.3087 10.0559 13.2896 6.48179 13.2896ZM6.48179 1.78389C3.86719 1.78389 1.74015 3.96452 1.74015 6.64484C1.74015 9.32515 3.86719 11.5057 6.48179 11.5057C9.09638 11.5057 11.2234 9.32515 11.2234 6.64484C11.2234 3.96452 9.09638 1.78389 6.48179 1.78389Z" transform="translate(4.01807 3.86523)" fill="#626468"/>
<path d="M17.3265 -2.86103e-08H13.1701L9.62994 3.8938C9.62994 3.8938 7.99879 2.35635 6.09935 -2.86103e-08H1.93345L-1.29078e-07 5.94224H19.2598L17.3265 -2.86103e-08Z" transform="translate(0.870117 23.166)" fill="#626468" fill-opacity="0.3"/>
<path d="M20.9553 23.5164L19.0219 17.5742C18.9034 17.21 18.5709 16.9645 18.1965 16.9645H14.0401C13.7988 16.9645 13.5682 17.0672 13.4037 17.2483L10.4692 20.4759C8.42415 18.3793 2.02187 11.3231 2.02187 5.16582C2.02187 3.80357 2.3204 2.49963 2.90901 1.29042C3.12363 0.849739 2.94902 0.314016 2.51914 0.0940543C2.08886 -0.125907 1.56656 0.0530971 1.3521 0.49384C0.641869 1.95259 0.281722 3.52461 0.281722 5.16588C0.281722 9.32394 2.7309 13.6731 5.16048 16.9645H2.80355C2.42906 16.9645 2.09669 17.2101 1.9782 17.5742L0.0446915 23.5164C-0.0437877 23.7884 0.00068033 24.0874 0.16415 24.32C0.327733 24.5527 0.590313 24.6905 0.87004 24.6905H20.1299C20.4097 24.6905 20.6722 24.5527 20.8358 24.32C20.9993 24.0875 21.0438 23.7884 20.9553 23.5164ZM2.07743 22.9067L3.43051 18.7483H6.55191C8.29503 20.8697 9.75969 22.264 9.91121 22.4068C9.93259 22.427 9.95482 22.4457 9.97751 22.4633C9.9858 22.4698 9.99454 22.4752 10.003 22.4811C10.0177 22.4917 10.0323 22.5023 10.0475 22.5118C10.0583 22.5186 10.0694 22.5243 10.0803 22.5305C10.0937 22.538 10.107 22.5459 10.1207 22.5527C10.1328 22.5586 10.145 22.5637 10.1573 22.5691C10.1704 22.5748 10.1833 22.5807 10.1966 22.5858C10.2094 22.5908 10.2224 22.5947 10.2353 22.599C10.2484 22.6032 10.2615 22.6077 10.2747 22.6114C10.2879 22.615 10.301 22.6178 10.3142 22.6208C10.3277 22.6238 10.341 22.6269 10.3546 22.6291C10.3677 22.6315 10.3809 22.6331 10.3942 22.6346C10.408 22.6363 10.4217 22.638 10.4355 22.6391C10.4487 22.6401 10.4617 22.6405 10.4748 22.641C10.4833 22.6413 10.4916 22.6421 10.5 22.6421C10.5057 22.6421 10.5114 22.6414 10.517 22.6413C10.5299 22.641 10.5427 22.6403 10.5555 22.6396C10.5697 22.6387 10.5839 22.6374 10.5981 22.6358C10.6109 22.6343 10.6234 22.6325 10.6362 22.6305C10.6503 22.6281 10.6643 22.6256 10.6782 22.6226C10.6909 22.6199 10.7035 22.6169 10.716 22.6137C10.7297 22.6101 10.7432 22.6061 10.7567 22.6018C10.7694 22.5978 10.782 22.5936 10.7945 22.5891C10.8075 22.5843 10.8203 22.579 10.833 22.5735C10.8457 22.5682 10.8584 22.5626 10.8709 22.5567C10.8831 22.5508 10.895 22.5444 10.9069 22.5378C10.9195 22.531 10.9321 22.5241 10.9444 22.5166C10.9558 22.5097 10.9669 22.502 10.978 22.4945C10.9902 22.4863 11.0024 22.4781 11.0143 22.4692C11.0255 22.4608 11.0363 22.4516 11.047 22.4426C11.0581 22.4334 11.0692 22.4244 11.0799 22.4146C11.0822 22.4124 11.0849 22.4105 11.0872 22.4083C11.15 22.3494 12.6407 20.9449 14.4471 18.7485H17.5694L18.9224 22.9068H2.07743V22.9067Z" transform="translate(0 5.30957)" fill="#626468"/>
<path d="M1.38522 3.4653C2.8461 2.36538 4.57973 1.78389 6.39841 1.78389C11.0732 1.78389 14.8766 5.68279 14.8766 10.4752C14.8766 13.0898 13.7398 16.1447 11.4978 19.5556C11.2293 19.9642 11.3347 20.5184 11.7332 20.7937C11.8823 20.8967 12.0513 20.9461 12.2186 20.9461C12.4983 20.9461 12.7729 20.8081 12.941 20.5524C15.38 16.8418 16.6168 13.4513 16.6168 10.4752C16.6168 4.69923 12.0328 0 6.39841 0C4.2065 0 2.11672 0.701076 0.355078 2.02758C-0.0322185 2.31915 -0.115554 2.87743 0.16886 3.27446C0.453502 3.67149 0.998038 3.75686 1.38522 3.4653Z" transform="translate(4.10156)" fill="#626468"/>
</svg>
