<svg width="21" height="30" viewBox="0 0 21 30" fill="none" xmlns="http://www.w3.org/2000/svg">
<path d="M8.46302 30H4.46228C3.66749 30 3.02083 29.3415 3.02083 28.5322V9.63318H1.44293C0.890818 9.63318 0.395847 9.3202 0.150921 8.81632C-0.0938793 8.3125 -0.0378627 7.72189 0.297052 7.27493L5.31684 0.577322C5.59174 0.210479 6.00933 -4.7544e-08 6.46259 -4.7544e-08C6.91591 -4.7544e-08 7.33357 0.210479 7.60853 0.577449L12.6282 7.27493C12.963 7.72164 13.0192 8.31225 12.7744 8.81619C12.5296 9.32013 12.0346 9.63318 11.4824 9.63318H8.98697C8.48032 9.63318 8.06947 9.21496 8.06947 8.69893C8.06947 8.18291 8.48032 7.76469 8.98697 7.76469H10.687L6.46265 2.12838L2.23834 7.76475H3.93833C4.44498 7.76475 4.85584 8.18297 4.85584 8.699V28.1316H8.06953V12.9587C8.06953 12.4428 8.48038 12.0245 8.98703 12.0245C9.49368 12.0245 9.90453 12.4427 9.90453 12.9587V28.5324C9.90447 29.3416 9.25781 30 8.46302 30Z" transform="translate(8.07471)" fill="black"/>
<path d="M4.65014e-07 0.533509V16.5742C4.65014e-07 16.8689 0.234622 17.1077 0.523948 17.1077H4.52469C4.81408 17.1077 5.04864 16.8688 5.04864 16.5742V0.533509C5.04864 0.238839 4.81401 -3.44374e-07 4.52469 -3.44374e-07H0.523948C0.234622 -6.39331e-05 4.65014e-07 0.238839 4.65014e-07 0.533509Z" transform="translate(0.91748 11.958)" fill="black" fill-opacity="0.3"/>
<path d="M5.44213 18.9761H1.44133C0.646598 18.9761 -1.29594e-07 18.3177 -1.29594e-07 17.5084V1.46775C-1.29594e-07 0.65846 0.64666 -4.42451e-07 1.44133 -4.42451e-07H5.44206C6.23685 -4.42451e-07 6.88351 0.65846 6.88351 1.46775V17.5084C6.88358 18.3177 6.23698 18.9761 5.44213 18.9761ZM1.83494 17.1077H5.04857V1.86843H1.83494V17.1077Z" transform="translate(0 11.0239)" fill="black"/>
</svg>
