<svg width="24" height="30" viewBox="0 0 24 30" fill="none" xmlns="http://www.w3.org/2000/svg">
<path d="M5.08676 1.71008H0.854473C0.382617 1.71008 0 1.32727 0 0.855042C0 0.382813 0.382617 -7.72991e-07 0.854473 -7.72991e-07H5.08676C5.55861 -7.72991e-07 5.94123 0.382813 5.94123 0.855042C5.94123 1.32727 5.55867 1.71008 5.08676 1.71008Z" transform="translate(11.2739) rotate(90)" fill="black"/>
<path d="M4.08926 8.18396C6.34769 8.18396 8.17852 6.35192 8.17852 4.09198C8.17852 1.83204 6.34769 0 4.08926 0C1.83082 0 0 1.83204 0 4.09198C0 6.35192 1.83082 8.18396 4.08926 8.18396Z" transform="translate(10.4185 20.9668) rotate(90)" fill="black" fill-opacity="0.3"/>
<path d="M17.2346 6.01215e-07C17.1972 6.01215e-07 17.1601 0.00199436 17.1229 0.00281522C17.1042 0.00164256 17.0857 6.01215e-07 17.0667 6.01215e-07H0.854473C0.382617 6.01215e-07 3.86238e-07 0.382813 3.86238e-07 0.855041C3.86238e-07 1.32727 0.382617 1.71008 0.854473 1.71008H13.5009C12.7481 2.57838 12.291 3.70987 12.291 4.94696C12.291 7.67474 14.5087 9.89399 17.2346 9.89399C19.9605 9.89399 22.1783 7.6748 22.1783 4.94696C22.1783 2.21913 19.9607 6.01215e-07 17.2346 6.01215e-07ZM17.2346 8.18396C15.451 8.18396 14 6.73192 14 4.94708C14 3.16224 15.451 1.7102 17.2346 1.7102C19.0183 1.7102 20.4694 3.16224 20.4694 4.94708C20.4694 6.73192 19.0183 8.18396 17.2346 8.18396Z" transform="translate(11.2739 7.82178) rotate(90)" fill="black"/>
<path d="M21.2606 9.98991H0.854473C0.382617 9.98991 1.055e-07 9.6071 1.055e-07 9.13487C1.055e-07 8.66264 0.382617 8.27983 0.854473 8.27983H21.2606C23.0707 8.27983 24.5432 6.80633 24.5432 4.99499C24.5432 3.18364 23.0707 1.71014 21.2606 1.71014C19.4505 1.71014 17.978 3.18364 17.978 4.99499C17.978 5.46721 17.5954 5.85003 17.1235 5.85003C16.6516 5.85003 16.269 5.46721 16.269 4.99499C16.269 2.24077 18.5082 1.03781e-07 21.2606 1.03781e-07C24.0129 1.03781e-07 26.2522 2.24071 26.2522 4.99493C26.2522 7.74914 24.0129 9.98991 21.2606 9.98991Z" transform="translate(22.9966 3.74756) rotate(90)" fill="black"/>
<path d="M7.90775 1.71008H0.854473C0.382617 1.71008 0 1.32727 0 0.855042C0 0.382813 0.382617 1.43146e-07 0.854473 1.43146e-07H7.90775C8.37961 1.43146e-07 8.76223 0.382813 8.76223 0.855042C8.76223 1.32727 8.37961 1.71008 7.90775 1.71008Z" transform="translate(18.124) rotate(90)" fill="black"/>
<path d="M3.78269 7.57049H1.00043C0.528574 7.57049 0.145957 7.18768 0.145957 6.71545C0.145957 6.24322 0.528574 5.86041 1.00043 5.86041H3.78269C4.92615 5.86041 5.85656 4.92949 5.85656 3.78527C5.85656 2.64106 4.92621 1.71014 3.78269 1.71014C2.63918 1.71014 1.70895 2.64106 1.70895 3.78527C1.70895 4.2575 1.32633 4.64032 0.854473 4.64032C0.382617 4.64032 -3.21865e-07 4.2575 -3.21865e-07 3.78527C-3.21865e-07 1.69806 1.69682 -9.30452e-08 3.78275 -9.30452e-08C5.86869 -9.30452e-08 7.56557 1.69806 7.56557 3.78527C7.56557 5.87248 5.86857 7.57049 3.78269 7.57049Z" transform="translate(23.9844 10.4961) rotate(90)" fill="black"/>
<path d="M11.2632 6.85663C9.37406 6.85663 7.83715 5.31876 7.83715 3.42832C7.83715 2.95609 8.21976 2.57328 8.69162 2.57328C9.16348 2.57328 9.54609 2.95609 9.54609 3.42832C9.54609 4.37571 10.3164 5.14655 11.2632 5.14655C12.2099 5.14655 12.9803 4.37571 12.9803 3.42832C12.9803 2.48093 12.2099 1.71008 11.2632 1.71008H0.854473C0.382617 1.71008 1.055e-07 1.32727 1.055e-07 0.855042C1.055e-07 0.382814 0.382617 1.43146e-08 0.854473 1.43146e-08H11.2631C13.1522 1.43146e-08 14.6892 1.53788 14.6892 3.42832C14.6892 5.31876 13.1522 6.85663 11.2632 6.85663Z" transform="translate(7.84082 3.74756) rotate(90)" fill="black"/>
</svg>
