<svg width="30" height="30" viewBox="0 0 30 30" fill="none" xmlns="http://www.w3.org/2000/svg">
<path d="M29.1502 30H0.849727C0.380449 30 0 29.6196 0 29.1503V0.849727C0 0.380449 0.380508 0 0.849727 0H29.1502C29.6195 0 29.9999 0.380449 29.9999 0.849727V23.4172C29.9999 23.8864 29.6195 24.2669 29.1502 24.2669C28.6809 24.2669 28.3005 23.8864 28.3005 23.4172V1.69945H1.69945V28.3005H29.1502C29.6195 28.3005 29.9999 28.681 29.9999 29.1503C29.9999 29.6196 29.6195 30 29.1502 30Z" fill="black"/>
<path d="M20.8964 21.7463H0.849726C0.380449 21.7463 -7.86781e-08 21.3658 -7.86781e-08 20.8965V4.91074C-7.86781e-08 4.44147 0.380449 4.06102 0.849726 4.06102C1.319 4.06102 1.69945 4.44147 1.69945 4.91074V20.0469H20.0467V1.69945H0.849726C0.380449 1.69945 -7.86781e-08 1.319 -7.86781e-08 0.849726C-7.86781e-08 0.380449 0.380449 -4.64916e-08 0.849726 -4.64916e-08H20.8965C21.3657 -4.64916e-08 21.7462 0.380449 21.7462 0.849726V20.8965C21.7461 21.3659 21.3657 21.7463 20.8964 21.7463Z" transform="translate(4.12695 4.12695)" fill="black"/>
<path d="M6.5639 6.56378C8.07626 6.16375 9.24949 5.34759 9.68061 5.01821C9.77478 4.94617 9.77478 4.80496 9.68061 4.73292C9.24949 4.40354 8.07617 3.58738 6.5639 3.18736C6.16388 1.67499 5.34772 0.501662 5.01826 0.0706265C4.94622 -0.0235427 4.80501 -0.0235427 4.73297 0.0706265C4.4036 0.501749 3.58744 1.67507 3.18733 3.18736C1.67498 3.58738 0.501745 4.40354 0.070626 4.73292C-0.0235425 4.80496 -0.0235425 4.94617 0.070626 5.01821C0.501745 5.34759 1.67506 6.16375 3.18733 6.56378C3.58735 8.07615 4.40351 9.24947 4.73297 9.6805C4.80501 9.77467 4.94622 9.77467 5.01826 9.6805C5.34764 9.24938 6.16379 8.07615 6.5639 6.56378Z" transform="translate(10.1245 10.1248)" fill="black" fill-opacity="0.3"/>
<path d="M5.99996 12C5.59044 12 5.21289 11.8132 4.9641 11.4877C4.63752 11.0602 3.89375 9.99448 3.41124 8.58865C2.00568 8.10613 0.939943 7.36262 0.512395 7.03586C0.186682 6.78689 -6.16763e-07 6.40934 -6.16763e-07 5.99991C-6.16763e-07 5.59048 0.186595 5.21293 0.512221 4.96414C0.939856 4.63729 2.00576 3.89369 3.41132 3.41117C3.89384 2.00543 4.6376 0.939689 4.96419 0.512313C5.21298 0.186771 5.59044 -5.10428e-07 6.00004 -5.10428e-07C6.40956 -5.10428e-07 6.7871 0.186771 7.0359 0.512313C7.36248 0.939776 8.10625 2.00552 8.58876 3.41117C9.99432 3.89369 11.0601 4.63738 11.4876 4.96405C11.8133 5.21302 12 5.59057 12 6C12 6.40943 11.8134 6.78698 11.4878 7.03577C11.0601 7.36262 9.99424 8.10622 8.58868 8.58865C8.10616 9.9944 7.36239 11.0602 7.03581 11.4877C6.78702 11.8133 6.40947 12 5.99996 12ZM3.06714 6C3.50244 6.22649 4.0232 6.44915 4.5991 6.60143C4.98997 6.70474 5.29513 7.00999 5.39853 7.40078C5.55072 7.97668 5.77346 8.49744 5.99996 8.93275C6.22645 8.49744 6.44911 7.97668 6.60138 7.40078C6.70478 7.00999 7.01002 6.70474 7.40081 6.60143C7.97671 6.44907 8.49738 6.22649 8.93277 6C8.49747 5.77351 7.97671 5.55084 7.40072 5.39857C7.00994 5.29525 6.70487 4.99001 6.60138 4.59922C6.44919 4.02332 6.22645 3.50256 5.99996 3.06725C5.77346 3.50256 5.5508 4.02332 5.39853 4.59922C5.29513 4.99001 4.98989 5.29525 4.59919 5.39857C4.0232 5.55084 3.50253 5.77359 3.06714 6Z" transform="translate(9 9)" fill="black"/>
</svg>
