<svg width="29" height="30" viewBox="0 0 29 30" fill="none" xmlns="http://www.w3.org/2000/svg">
<rect width="22" height="2" transform="translate(3 14)" fill="black"/>
<path d="M21 9H0V6L10.5 0L21 6V9Z" transform="translate(4 6)" fill="black" fill-opacity="0.3"/>
<path d="M15.7469 25.044H3.04866C1.36771 25.044 0 23.6862 0 22.0171V8.24433C0 7.22316 0.515959 6.28296 1.38016 5.72937L9.22891 0.701675C10.6893 -0.233892 12.5765 -0.233892 14.0369 0.701675L21.8856 5.72937C22.7498 6.28296 23.2658 7.2231 23.2658 8.24433V23.2674C23.2658 23.7454 22.8754 24.133 22.394 24.133C21.9127 24.133 21.5223 23.7455 21.5223 23.2674V8.24433C21.5223 7.81384 21.3048 7.4174 20.9403 7.18396L13.0918 2.15626C12.2055 1.58855 11.0603 1.58849 10.174 2.15626L2.32539 7.18396C1.96098 7.4174 1.74351 7.81378 1.74351 8.24433V22.0171C1.74351 22.7318 2.32899 23.313 3.04866 23.313H15.7469C16.2283 23.313 16.6186 23.7005 16.6186 24.1785C16.6186 24.6566 16.2283 25.044 15.7469 25.044Z" transform="translate(2.86719 4.95605)" fill="black"/>
<path d="M28.1275 10.1358C27.9596 10.1358 27.7902 10.0879 27.6406 9.9876L16.0052 2.19205C15.0909 1.57945 13.9092 1.57945 12.995 2.19205L1.35955 9.9876C0.960613 10.255 0.418687 10.1506 0.149288 9.75434C-0.120111 9.35807 -0.0148889 8.82006 0.384223 8.5527L12.0197 0.75709C13.5265 -0.252363 15.4736 -0.252363 16.9804 0.75709L28.6158 8.55264C29.0149 8.82 29.1201 9.35801 28.8508 9.75428C28.6824 10.0021 28.4074 10.1358 28.1275 10.1358Z" fill="black"/>
</svg>
