<svg width="30" height="30" viewBox="0 0 30 30" fill="none" xmlns="http://www.w3.org/2000/svg">
<path d="M6.96018 0H0V7.03065H6.96018V0Z" transform="translate(4.55908 11.2385)" fill="black" fill-opacity="0.3"/>
<path d="M6.96018 0H0V7.03065H6.96018V0Z" transform="translate(11.5195 18.2693)" fill="black" fill-opacity="0.3"/>
<path d="M6.96018 0H0V7.03065H6.96018V0Z" transform="translate(18.4805 18.2693)" fill="black" fill-opacity="0.3"/>
<path d="M21.7932 4.85518C22.2969 4.85518 22.7051 4.43546 22.7051 3.91767V0.937517C22.7051 0.41972 22.2969 -6.6186e-08 21.7932 -6.6186e-08H14.8328H7.87236H0.911836C0.408222 -6.6186e-08 0 0.41972 0 0.937517V7.96817C0 8.48597 0.408222 8.90569 0.911836 8.90569H6.96041V14.0612H1.82367V11.671C1.82367 11.1532 1.41545 10.7335 0.911836 10.7335C0.408222 10.7335 0 11.1532 0 11.671V14.9987C0 15.5165 0.408222 15.9362 0.911836 15.9362H7.8723H14.8328H21.7933C22.2969 15.9362 22.7051 15.5165 22.7051 14.9987V7.96817C22.7051 7.45037 22.2969 7.03065 21.7933 7.03065H15.7447V1.87503H20.8814V3.91767C20.8814 4.43534 21.2896 4.85518 21.7932 4.85518ZM13.9209 7.03065H8.7842V1.87503H13.9209V7.03065ZM1.82367 1.87503H6.96041V7.03065H1.82367V1.87503ZM8.78414 8.90575H13.9209V14.0612H8.78414V8.90575ZM20.8814 14.0612H15.7447V8.90575H20.8814V14.0612Z" transform="translate(3.64746 10.301)" fill="black"/>
<path d="M29.0882 8.43844C29.5918 8.43844 30 8.01872 30 7.50092V2.81201C30 2.29421 29.5918 1.87449 29.0882 1.87449H23.9818V0.937517C23.9818 0.41972 23.5736 6.89438e-10 23.0699 6.89438e-10C22.5663 6.89438e-10 22.1581 0.41972 22.1581 0.937517V1.87449H7.84195V0.937517C7.84195 0.41972 7.43373 6.89438e-10 6.93012 6.89438e-10C6.4265 6.89438e-10 6.01828 0.41972 6.01828 0.937517V1.87449H0.911836C0.408223 1.87449 0 2.29421 0 2.81201V7.50092V29.0625C0 29.5803 0.408223 30 0.911836 30H29.0881C29.5917 30 29.9999 29.5803 29.9999 29.0625V11.2386C29.9999 10.7208 29.5917 10.3011 29.0881 10.3011C28.5845 10.3011 28.1763 10.7208 28.1763 11.2386V28.1249H1.82373V8.43844H23.0699C23.5736 8.43844 23.9818 8.01872 23.9818 7.50092C23.9818 6.98312 23.5736 6.5634 23.0699 6.5634H1.82373V3.74953H6.01828V4.21828C6.01828 4.73608 6.4265 5.1558 6.93012 5.1558C7.43373 5.1558 7.84195 4.73608 7.84195 4.21828V3.74953H22.158V4.21828C22.158 4.73608 22.5663 5.1558 23.0699 5.1558C23.5735 5.1558 23.9817 4.73608 23.9817 4.21828V3.74953H28.1763V7.50086C28.1763 8.01872 28.5846 8.43844 29.0882 8.43844Z" fill="black"/>
</svg>
