<svg width="30" height="30" viewBox="0 0 30 30" fill="none" xmlns="http://www.w3.org/2000/svg">
<path d="M5.13355 0.724944L0.643291 0.00696575C0.270459 -0.052664 -0.0509268 0.279386 0.00672929 0.664649L0.70165 5.3039C0.771493 5.77011 1.32438 5.95693 1.64729 5.6233L2.16421 5.08924L4.68918 7.69799C5.18693 8.21226 5.99383 8.21226 6.49158 7.69799L7.45064 6.70711C7.94839 6.19284 7.94839 5.35917 7.45064 4.84491L4.92578 2.23609L5.4427 1.70202C5.76549 1.36834 5.58478 0.797105 5.13355 0.724944Z" transform="translate(4.41553 4.66943)" fill="black" fill-opacity="0.3"/>
<path d="M6.43072 9.82026C5.86576 9.82026 5.33467 9.593 4.93518 9.18026L3.00164 7.18251C2.74858 7.40692 2.43094 7.52933 2.0962 7.52933C1.40011 7.52933 0.817743 7.0144 0.711454 6.30495L0.0165337 1.6657C-0.0459857 1.24835 0.0705569 0.825312 0.336338 0.505067C0.602587 0.184096 0.989129 0 1.39671 0C1.46848 0 1.54091 0.00575092 1.61221 0.017132L6.10248 0.735171C6.62578 0.818774 7.05304 1.19375 7.21769 1.71389C7.37086 2.19789 7.26855 2.71954 6.95174 3.10147L8.88533 5.09922C9.71003 5.95129 9.71003 7.33743 8.88533 8.1895L7.92626 9.18038C7.52677 9.593 6.99568 9.82026 6.43072 9.82026ZM3.00457 5.08905C3.21967 5.08905 3.43483 5.17386 3.59889 5.34337L6.12387 7.95213C6.20584 8.03688 6.31482 8.08349 6.43072 8.08349C6.54662 8.08349 6.65566 8.03688 6.73758 7.95213L7.69664 6.96124C7.86591 6.78647 7.86591 6.50194 7.69664 6.32717L5.17166 3.71841C5.01404 3.55551 4.92551 3.33467 4.92551 3.10438C4.92551 2.87409 5.0141 2.65319 5.17166 2.49034L5.29453 2.3634L1.73673 1.79446L2.28733 5.47044L2.4102 5.34337C2.57438 5.17392 2.78954 5.08905 3.00457 5.08905Z" transform="translate(3.5752 3.80127)" fill="black"/>
<path d="M2.6904 0.724944L7.18066 0.00696575C7.55349 -0.052664 7.87488 0.279386 7.81723 0.664649L7.1223 5.3039C7.05246 5.77011 6.49957 5.95693 6.17666 5.6233L5.65975 5.08924L3.13477 7.69799C2.63702 8.21226 1.83013 8.21226 1.33237 7.69799L0.373315 6.70711C-0.124438 6.19284 -0.124438 5.35917 0.373315 4.84491L2.89817 2.23609L2.38126 1.70202C2.05835 1.36834 2.23905 0.797105 2.6904 0.724944Z" transform="translate(17.7607 4.66943)" fill="black" fill-opacity="0.3"/>
<path d="M3.07299 9.82038C2.50809 9.82038 1.97694 9.59313 1.5775 9.18038L0.618441 8.1895C-0.206147 7.33743 -0.206147 5.95129 0.618441 5.09922L2.55215 3.10147C2.23539 2.71954 2.13309 2.19801 2.28619 1.71389C2.45078 1.19381 2.87816 0.818774 3.40152 0.735171L7.89161 0.017132C7.96286 0.00575092 8.0354 0 8.10712 0C8.5147 0 8.90112 0.184095 9.16749 0.505067C9.43327 0.825312 9.54975 1.24847 9.48729 1.6657L8.79237 6.30495C8.68614 7.01434 8.10378 7.52927 7.40769 7.52933C7.07294 7.52933 6.75531 7.40698 6.50218 7.18251L4.56859 9.18026C4.16904 9.59312 3.63795 9.82038 3.07299 9.82038ZM4.20924 2.36358L4.33211 2.49053C4.48972 2.65337 4.57826 2.87427 4.57826 3.10456C4.57826 3.33485 4.48966 3.55569 4.33211 3.7186L1.80713 6.32735C1.63797 6.50213 1.63797 6.78665 1.80713 6.96143L2.76619 7.95231C2.84816 8.03706 2.95715 8.08368 3.07305 8.08368C3.18894 8.08368 3.29799 8.03706 3.3799 7.95231L5.90488 5.34355C6.23306 5.00454 6.76527 5.00454 7.09357 5.34355L7.21644 5.47062L7.76704 1.79464L4.20924 2.36358Z" transform="translate(16.9214 3.80103)" fill="black"/>
<path d="M2.6904 7.35863L7.18066 8.07661C7.55349 8.13624 7.87488 7.80419 7.81723 7.41893L7.1223 2.77979C7.05246 2.31359 6.49957 2.12677 6.17666 2.46039L5.65975 2.99446L3.13477 0.385702C2.63702 -0.128567 1.83013 -0.128567 1.33237 0.385702L0.373315 1.37659C-0.124438 1.89085 -0.124438 2.72452 0.373315 3.23879L2.89829 5.84755L2.38138 6.38161C2.05835 6.71523 2.23905 7.28647 2.6904 7.35863Z" transform="translate(17.7607 17.2468)" fill="black" fill-opacity="0.3"/>
<path d="M8.10721 9.82039C8.03543 9.82039 7.96289 9.81463 7.89164 9.80325L3.40138 9.08521C2.87808 9.00161 2.45081 8.62664 2.28616 8.1065C2.133 7.6225 2.2353 7.10084 2.55212 6.71891L0.618529 4.72116C-0.206176 3.86915 -0.206176 2.48296 0.618529 1.63089L1.57759 0.640007C1.97708 0.22726 2.50817 0 3.07307 0C3.63803 0 4.16913 0.22726 4.56862 0.640007L6.50221 2.63776C6.75528 2.41334 7.07291 2.29093 7.40766 2.29093C8.10375 2.29093 8.68611 2.80587 8.79246 3.51531L9.48738 8.15456C9.5499 8.57191 9.43336 8.99495 9.16757 9.3152C8.90121 9.63623 8.51467 9.82039 8.10721 9.82039ZM4.20927 7.45699L7.76707 8.02592L7.21647 4.34995L7.09359 4.47701C6.76541 4.81603 6.23321 4.81603 5.90491 4.47701L3.37993 1.86826C3.29796 1.78351 3.18897 1.73689 3.07307 1.73689C2.95718 1.73689 2.84813 1.78351 2.76622 1.86826L1.80716 2.85914C1.63788 3.03397 1.63788 3.31844 1.80716 3.49321L4.33214 6.10197C4.48975 6.26488 4.57829 6.48572 4.57829 6.71601C4.57829 6.94629 4.48969 7.16719 4.33214 7.33004L4.20927 7.45699Z" transform="translate(16.9209 16.3784)" fill="black"/>
<path d="M5.13355 7.35863L0.643291 8.07661C0.270459 8.13624 -0.0509268 7.80419 0.00672929 7.41893L0.70165 2.77979C0.771493 2.31359 1.32438 2.12677 1.64729 2.46039L2.16421 2.99446L4.68918 0.385702C5.18693 -0.128567 5.99383 -0.128567 6.49158 0.385702L7.45064 1.37659C7.94839 1.89085 7.94839 2.72452 7.45064 3.23879L4.92567 5.84755L5.44258 6.38161C5.76549 6.71523 5.58478 7.28647 5.13355 7.35863Z" transform="translate(4.41553 17.2468)" fill="black" fill-opacity="0.3"/>
<path d="M1.39669 9.82032C0.989167 9.82032 0.602683 9.63623 0.336317 9.31526C0.070536 8.99501 -0.0459482 8.57185 0.0165126 8.15463L0.711433 3.51531C0.817781 2.80587 1.40014 2.29093 2.09618 2.29093C2.43092 2.29093 2.74856 2.4134 3.00162 2.63775L4.93521 0.640005C5.33471 0.227258 5.8658 0 6.43076 0C6.99566 0 7.52681 0.227258 7.92624 0.640005L8.8853 1.63089C9.70989 2.4829 9.70989 3.86909 8.8853 4.72116L6.9516 6.71891C7.26835 7.10084 7.37066 7.62238 7.21755 8.1065C7.05296 8.62658 6.62558 9.00161 6.10222 9.08521L1.61213 9.80325C1.54094 9.81451 1.4684 9.82032 1.39669 9.82032ZM2.28743 4.34988L1.73682 8.02586L5.29463 7.45693L5.17176 7.32998C5.01414 7.16713 4.9256 6.94623 4.9256 6.71595C4.9256 6.48566 5.0142 6.26482 5.17176 6.10191L7.69673 3.49315C7.86589 3.31838 7.86589 3.03385 7.69673 2.85908L6.73767 1.86808C6.6557 1.78332 6.54672 1.73671 6.43082 1.73671C6.31492 1.73671 6.20588 1.78332 6.12396 1.86808L3.59899 4.47683C3.2708 4.81584 2.7386 4.81584 2.4103 4.47683L2.28743 4.34988Z" transform="translate(3.5752 16.3784)" fill="black"/>
<path d="M25.7047 30H4.29521C1.92679 30 0 28.0093 0 25.5623V4.43766C0 1.99073 1.92679 0 4.29521 0H25.7048C28.0732 0 30 1.99073 30 4.43773V25.5625C29.9999 28.0093 28.0732 30 25.7047 30ZM4.29521 1.73671C2.85369 1.73671 1.68099 2.94843 1.68099 4.43766V25.5624C1.68099 27.0516 2.85369 28.2634 4.29521 28.2634H25.7048C27.1463 28.2634 28.319 27.0517 28.319 25.5624V4.43766C28.319 2.94843 27.1463 1.73671 25.7048 1.73671C25.7047 1.73671 4.29521 1.73671 4.29521 1.73671Z" fill="black"/>
</svg>
