<svg width="60" height="53" viewBox="0 0 60 53" fill="none" xmlns="http://www.w3.org/2000/svg">
<path d="M7.94893 7.56565H-1.50203e-07V-5.45082e-07H7.94893C10.0323 -5.45082e-07 11.7214 1.69353 11.7214 3.78283C11.7213 5.87201 10.0324 7.56565 7.94893 7.56565Z" transform="translate(3.93091 28.6665)" fill="#E20613" fill-opacity="0.3"/>
<path d="M3.77249 -5.45082e-07H11.7214V7.56565H3.77249C1.68914 7.56565 -1.1158e-06 5.87213 -1.1158e-06 3.78283C-1.1158e-06 1.69353 1.6889 -5.45082e-07 3.77249 -5.45082e-07Z" transform="translate(44.3474 28.6665)" fill="#E20613" fill-opacity="0.3"/>
<path d="M19.2647 0H0V8.94038H19.2647V0Z" transform="translate(20.3674 33.9963)" fill="#E20613" fill-opacity="0.3"/>
<path d="M9.236 0H0V8.34309H9.236V0Z" transform="translate(6.65308 42.9363)" fill="#E20613" fill-opacity="0.3"/>
<path d="M9.236 0H0V8.34309H9.236V0Z" transform="translate(44.1106 42.9363)" fill="#E20613" fill-opacity="0.3"/>
<path d="M58.2847 21.7845H52.7019C52.6997 21.7845 52.6975 21.7842 52.6953 21.7842H9.41154L12.6754 5.57659C12.9739 4.45403 14.2792 3.4397 15.4343 3.4397H44.5656C45.7207 3.4397 47.0256 4.45403 47.324 5.57647L49.2928 15.3516C49.4803 16.2829 50.3854 16.8844 51.3136 16.6971C52.2422 16.5091 52.8429 15.6019 52.6554 14.6708L50.6779 4.85192C50.6727 4.82677 50.6671 4.80174 50.6609 4.77659C49.9956 2.09811 47.3182 7.17214e-08 44.5657 7.17214e-08H15.4344C12.6822 7.17214e-08 10.0047 2.09811 9.33889 4.77636C9.33268 4.80151 9.32705 4.82654 9.3219 4.85192L5.91186 21.7846H1.71515C0.767928 21.7846 0 22.5547 0 23.5045C0 24.4543 0.767928 25.2243 1.71515 25.2243H4.21265L2.51871 27.6914C2.51824 27.6921 2.51789 27.6928 2.5173 27.6935C2.50359 27.7136 2.49105 27.7347 2.47816 27.7555C2.46527 27.7761 2.45238 27.7967 2.44043 27.8177C2.42707 27.8415 2.41441 27.8656 2.40199 27.89C2.39238 27.9089 2.38324 27.928 2.37433 27.9475C2.36238 27.9734 2.35054 27.9994 2.33988 28.0261C2.33273 28.0439 2.32664 28.0622 2.32019 28.0803C2.30273 28.1284 2.28738 28.1772 2.27437 28.2273C2.26875 28.2485 2.26265 28.2699 2.25785 28.2914C2.25199 28.3173 2.24753 28.3435 2.24296 28.3698C2.23851 28.3949 2.23476 28.4202 2.23148 28.4455C2.22843 28.4697 2.22527 28.4941 2.22304 28.5187C2.22 28.5546 2.21836 28.5906 2.21753 28.6267C2.21718 28.6401 2.21543 28.6531 2.21543 28.6667V36.2324C2.21543 36.2358 2.21589 36.239 2.21589 36.2424V39.5351C2.21589 41.4953 3.32027 43.201 4.93745 44.0617V51.2802C4.93745 52.23 5.70538 53 6.6526 53H15.8886C16.8358 53 17.6038 52.23 17.6038 51.2802V44.6568H42.3952V51.2802C42.3952 52.2301 43.1631 53 44.1103 53H53.3463C54.2937 53 55.0615 52.23 55.0615 51.2802V44.6527C55.9724 44.6116 56.6988 43.8603 56.6988 42.9368C56.6988 41.9869 55.9309 41.217 54.9837 41.217H41.3475V33.9964C41.3475 33.0466 40.5796 32.2766 39.6324 32.2766H20.3674C19.4202 32.2766 18.6522 33.0466 18.6522 33.9964V41.217H7.3242C6.39925 41.217 5.64655 40.4625 5.64655 39.535V37.9521H11.8797C14.9056 37.9521 17.3674 35.4836 17.3674 32.4494C17.3674 29.4153 14.9056 26.9468 11.8797 26.9468H7.1946L8.37748 25.2236H51.7683L52.8941 26.9468H48.12C45.0941 26.9468 42.6324 29.4153 42.6324 32.4494C42.6324 35.4836 45.0941 37.9521 48.12 37.9521H56.069C57.0162 37.9521 57.7841 37.1821 57.7841 36.2323V28.6666C57.7841 28.6408 57.7814 28.6155 57.7801 28.5901C57.779 28.5634 57.7786 28.537 57.7761 28.5103C57.7732 28.4781 57.7683 28.4466 57.7636 28.4149C57.7602 28.3912 57.7573 28.3673 57.7528 28.3437C57.7461 28.3088 57.7376 28.2747 57.7288 28.2405C57.7239 28.2208 57.7194 28.2009 57.7136 28.1812C57.7024 28.1434 57.6892 28.1066 57.6757 28.0698C57.6698 28.0542 57.6649 28.0385 57.6587 28.023C57.6421 27.9819 57.6234 27.9421 57.6039 27.9025C57.5986 27.8917 57.5938 27.8805 57.5881 27.8698C57.5649 27.8254 57.5393 27.7825 57.5126 27.7404C57.5092 27.7351 57.5066 27.7294 57.5031 27.7241L57.4982 27.7166C57.4944 27.7107 57.4908 27.7048 57.4868 27.6992L55.8697 25.2241H58.2848C59.2322 25.2241 60 24.4541 60 23.5042C60 22.5543 59.232 21.7845 58.2847 21.7845ZM51.6317 44.6567V49.5602H45.826V44.6567H51.6317ZM22.0825 35.7163H37.9174V41.2169H22.0825V35.7163ZM14.1739 44.6567V49.5602H8.36823V44.6567H14.1739ZM13.9371 32.4494C13.9371 33.5869 13.0141 34.5124 11.8797 34.5124H5.64667V30.3865H11.8799C13.0141 30.3865 13.9371 31.312 13.9371 32.4494ZM54.3538 34.5124H48.12C46.9857 34.5124 46.0627 33.5869 46.0627 32.4494C46.0627 31.312 46.9857 30.3865 48.12 30.3865H54.3538V34.5124Z" fill="#E20613"/>
</svg>
