<svg width="30" height="27" viewBox="0 0 30 27" fill="none" xmlns="http://www.w3.org/2000/svg">
<path d="M3.97447 3.8542H-7.51017e-08V-2.77683e-07H3.97447C5.01614 -2.77683e-07 5.86071 0.862742 5.86071 1.9271C5.86065 2.9914 5.0162 3.8542 3.97447 3.8542Z" transform="translate(1.96533 14.6038)" fill="black" fill-opacity="0.3"/>
<path d="M1.88625 -2.77683e-07H5.86071V3.8542H1.88625C0.844569 3.8542 -5.57898e-07 2.99146 -5.57898e-07 1.9271C-5.57898e-07 0.862742 0.844452 -2.77683e-07 1.88625 -2.77683e-07Z" transform="translate(22.1738 14.6038)" fill="black" fill-opacity="0.3"/>
<path d="M9.63233 0H0V4.55453H9.63233V0Z" transform="translate(10.1836 17.3188)" fill="black" fill-opacity="0.3"/>
<path d="M4.618 0H0V4.25025H4.618V0Z" transform="translate(3.32617 21.8733)" fill="black" fill-opacity="0.3"/>
<path d="M4.618 0H0V4.25025H4.618V0Z" transform="translate(22.0552 21.8733)" fill="black" fill-opacity="0.3"/>
<path d="M29.1424 11.0978H26.351C26.3499 11.0978 26.3487 11.0976 26.3476 11.0976H4.70577L6.33772 2.8409C6.48696 2.26904 7.13958 1.7523 7.71713 1.7523H22.2828C22.8604 1.7523 23.5128 2.26904 23.662 2.84085L24.6464 7.82064C24.7402 8.29506 25.1927 8.60149 25.6568 8.50607C26.1211 8.41029 26.4215 7.94815 26.3277 7.4738L25.3389 2.47173C25.3364 2.45892 25.3335 2.44617 25.3304 2.43336C24.9978 1.06885 23.6591 3.65373e-08 22.2829 3.65373e-08H7.71719C6.34112 3.65373e-08 5.00237 1.06885 4.66944 2.43324C4.66634 2.44605 4.66353 2.4588 4.66095 2.47173L2.95593 11.0978H0.857576C0.383964 11.0978 0 11.4901 0 11.974C0 12.4578 0.383964 12.8501 0.857576 12.8501H2.10632L1.25935 14.1069C1.25912 14.1073 1.25894 14.1077 1.25865 14.108C1.25179 14.1183 1.24552 14.129 1.23908 14.1396C1.23263 14.1501 1.22619 14.1606 1.22021 14.1713C1.21353 14.1834 1.2072 14.1957 1.20099 14.2081C1.19619 14.2178 1.19162 14.2275 1.18717 14.2374C1.18119 14.2506 1.17527 14.2638 1.16994 14.2774C1.16636 14.2865 1.16332 14.2958 1.1601 14.305C1.15136 14.3296 1.14369 14.3544 1.13719 14.3799C1.13437 14.3908 1.13133 14.4017 1.12892 14.4126C1.12599 14.4258 1.12377 14.4391 1.12148 14.4525C1.11926 14.4653 1.11738 14.4782 1.11574 14.4911C1.11422 14.5034 1.11263 14.5159 1.11152 14.5284C1.11 14.5467 1.10918 14.565 1.10877 14.5834C1.10859 14.5902 1.10771 14.5969 1.10771 14.6038V18.458C1.10771 18.4597 1.10795 18.4614 1.10795 18.4631V20.1405C1.10795 21.1391 1.66013 22.008 2.46873 22.4465V26.1238C2.46873 26.6077 2.85269 27 3.3263 27H7.9443C8.41791 27 8.80188 26.6077 8.80188 26.1238V22.7497H21.1976V26.1238C21.1976 26.6078 21.5816 27 22.0552 27H26.6732C27.1468 27 27.5307 26.6077 27.5307 26.1238V22.7476C27.9862 22.7266 28.3494 22.3439 28.3494 21.8735C28.3494 21.3895 27.9655 20.9973 27.4918 20.9973H20.6738V17.3189C20.6738 16.8351 20.2898 16.4428 19.8162 16.4428H10.1837C9.71008 16.4428 9.32611 16.8351 9.32611 17.3189V20.9973H3.6621C3.19962 20.9973 2.82328 20.6129 2.82328 20.1405V19.3341H5.93987C7.45282 19.3341 8.68369 18.0766 8.68369 16.5308C8.68369 14.9851 7.45282 13.7276 5.93987 13.7276H3.5973L4.18874 12.8498H25.8841L26.4471 13.7276H24.06C22.5471 13.7276 21.3162 14.9851 21.3162 16.5308C21.3162 18.0766 22.5471 19.3341 24.06 19.3341H28.0345C28.5081 19.3341 28.8921 18.9418 28.8921 18.458V14.6037C28.8921 14.5906 28.8907 14.5777 28.8901 14.5648C28.8895 14.5512 28.8893 14.5377 28.8881 14.5241C28.8866 14.5077 28.8841 14.4917 28.8818 14.4755C28.8801 14.4634 28.8786 14.4513 28.8764 14.4392C28.8731 14.4215 28.8688 14.4041 28.8644 14.3867C28.8619 14.3766 28.8597 14.3665 28.8568 14.3565C28.8512 14.3372 28.8446 14.3184 28.8379 14.2997C28.8349 14.2917 28.8325 14.2838 28.8294 14.2759C28.821 14.2549 28.8117 14.2346 28.8019 14.2145C28.7993 14.209 28.7969 14.2033 28.794 14.1978C28.7824 14.1752 28.7697 14.1533 28.7563 14.1319C28.7546 14.1292 28.7533 14.1263 28.7515 14.1236L28.7491 14.1198C28.7472 14.1168 28.7454 14.1138 28.7434 14.1109L27.9349 12.85H29.1424C29.6161 12.85 30 12.4577 30 11.9739C30 11.4899 29.616 11.0978 29.1424 11.0978ZM25.8158 22.7496V25.2476H22.913V22.7496H25.8158ZM11.0413 18.1951H18.9587V20.9973H11.0413V18.1951ZM7.08696 22.7496V25.2476H4.18411V22.7496H7.08696ZM6.96854 16.5308C6.96854 17.1103 6.50706 17.5818 5.93987 17.5818H2.82333V15.4799H5.93993C6.50706 15.4799 6.96854 15.9514 6.96854 16.5308ZM27.1769 17.5818H24.06C23.4928 17.5818 23.0313 17.1103 23.0313 16.5308C23.0313 15.9514 23.4928 15.4799 24.06 15.4799H27.1769V17.5818Z" fill="black"/>
</svg>
