<svg width="30" height="30" viewBox="0 0 30 30" fill="none" xmlns="http://www.w3.org/2000/svg">
<path d="M15.0368 0C6.74901 0 0 6.74964 0 15.0746C0 23.324 6.74901 30 15.0368 30C23.3246 30 30 23.3608 30 15.0746C30 6.74964 23.0247 0 15.0368 0ZM15.0368 28.0103C7.91271 28.0103 2.06275 22.1996 2.06275 15.0749C2.06275 7.91365 7.91302 1.98691 15.0368 1.98691C22.1254 1.98691 27.9373 7.95015 27.9373 15.0749C27.9373 22.1251 22.1257 28.0103 15.0368 28.0103Z" fill="black"/>
<path d="M13.2749 0.0003144C12.3394 0.0003144 11.9627 0.412864 11.5508 1.23828L7.49984 9.67525H7.46302L3.37529 1.23796C2.96211 0.412235 2.58795 -1.10439e-07 1.6502 -1.10439e-07C0.412864 -1.10439e-07 1.48852e-07 0.787337 1.48852e-07 1.53691V14.6236C1.48852e-07 15.338 0.563597 15.7486 1.23733 15.7486C1.83712 15.7486 2.51212 15.3377 2.51212 14.6236V4.87476H2.55019L6.26251 12.4495C6.52527 12.9744 6.86355 13.2759 7.46334 13.2759C8.06155 13.2759 8.40078 12.9744 8.66323 12.4495L12.3749 4.87476H12.413V14.6236C12.413 15.338 13.0874 15.7486 13.6875 15.7486C14.3631 15.7486 14.9248 15.3377 14.9248 14.6236V1.53723C14.9245 0.787652 14.5132 0.0003144 13.2749 0.0003144Z" transform="translate(7.53809 7.12549)" fill="black"/>
</svg>
