<svg width="30" height="30" viewBox="0 0 30 30" fill="none" xmlns="http://www.w3.org/2000/svg">
<path d="M19.6762 7.15256e-08H0.557226C0.249492 7.15256e-08 0.000117291 0.249375 0.000117291 0.557109V6.69533H6.63393V13.538H1.68085e-07V19.6762C1.68085e-07 19.9839 0.249492 20.2333 0.557109 20.2333H7.09641H19.6761C19.9838 20.2333 20.2332 19.9839 20.2332 19.6762V6.09943V0.557109C20.2334 0.249375 19.9839 7.15256e-08 19.6762 7.15256e-08Z" transform="translate(4.8833 4.8833)" fill="black" fill-opacity="0.3"/>
<path d="M20.6009 22.0825H1.48178C0.664746 22.0825 -1.75238e-07 21.4178 -1.75238e-07 20.6007V14.4626C-1.75238e-07 13.9519 0.413965 13.538 0.924668 13.538H6.63381V8.54467H0.924785C0.414082 8.54467 0.000117395 8.1307 0.000117395 7.62V1.48178C0.000117395 0.664746 0.664863 1.75238e-07 1.48189 1.75238e-07H20.601C21.418 1.75238e-07 22.0828 0.664746 22.0828 1.48178V20.6008C22.0827 21.4178 21.4179 22.0825 20.6009 22.0825ZM1.84945 20.2332H20.2334V1.84934H1.84945V6.69533H7.55859C8.0693 6.69533 8.48326 7.1093 8.48326 7.62V14.4626C8.48326 14.9733 8.0693 15.3873 7.55859 15.3873H1.84945V20.2332Z" transform="translate(3.95898 3.95874)" fill="black"/>
<path d="M27.7068 30H2.29336C1.02879 30 0 28.9712 0 27.7067V20.2672C0 19.7565 0.413965 19.3425 0.924668 19.3425C1.43537 19.3425 1.84934 19.7565 1.84934 20.2672V27.7068C1.84934 27.9515 2.0485 28.1508 2.29336 28.1508H27.7068C27.9515 28.1508 28.1508 27.9516 28.1508 27.7068V2.29336C28.1508 2.04861 27.9516 1.84934 27.7068 1.84934H2.29336C2.0485 1.84934 1.84934 2.0485 1.84934 2.29336V14.8349C1.84934 15.3456 1.43537 15.7596 0.924668 15.7596C0.413965 15.7596 0 15.3456 0 14.8349V2.29336C0 1.02879 1.02879 0 2.29336 0H27.7068C28.9713 0 30.0001 1.02879 30.0001 2.29336V27.7068C30 28.9712 28.9712 30 27.7068 30Z" fill="black"/>
<path d="M0.924668 18.3835C0.413965 18.3835 -7.15256e-08 17.9695 -7.15256e-08 17.4588V0.924668C-7.15256e-08 0.413965 0.413965 1.75238e-07 0.924668 1.75238e-07C1.43537 1.75238e-07 1.84934 0.413965 1.84934 0.924668V17.4589C1.84934 17.9695 1.43537 18.3835 0.924668 18.3835Z" transform="translate(10.5928 3.95874)" fill="black"/>
<path d="M0.924669 18.3836C0.413965 18.3836 2.71797e-07 17.9696 2.71797e-07 17.4589V0.924668C2.71797e-07 0.413965 0.413965 7.86781e-08 0.924669 7.86781e-08C1.43537 7.86781e-08 1.84934 0.413965 1.84934 0.924668V17.4589C1.84934 17.9696 1.43531 18.3836 0.924669 18.3836Z" transform="translate(17.4355 7.65771)" fill="black"/>
<path d="M21.0964 1.84934H0.924668C0.413965 1.84934 2.07424e-07 1.43537 2.07424e-07 0.924668C2.07424e-07 0.413964 0.413965 1.07288e-07 0.924668 1.07288e-07H21.0965C21.6072 1.07288e-07 22.0212 0.413964 22.0212 0.924668C22.0212 1.43537 21.6071 1.84934 21.0964 1.84934Z" transform="translate(3.95898 10.6541)" fill="black"/>
<path d="M21.0654 1.84934H0.924668C0.413965 1.84934 1.68085e-07 1.43537 1.68085e-07 0.924668C1.68085e-07 0.413965 0.413965 -4.43459e-07 0.924668 -4.43459e-07H21.0654C21.5762 -4.43459e-07 21.9901 0.413965 21.9901 0.924668C21.9901 1.43537 21.5761 1.84934 21.0654 1.84934Z" transform="translate(3.98975 17.4966)" fill="black"/>
</svg>
