<svg width="30" height="27" viewBox="0 0 30 27" fill="none" xmlns="http://www.w3.org/2000/svg">
<path d="M6.68252 2.65945C6.59352 2.65945 6.50662 2.66821 6.42242 2.68437C6.43309 2.59263 6.43924 2.49944 6.43924 2.40478C6.43924 1.07669 5.35825 0 4.02472 0C2.69125 0 1.6102 1.07663 1.6102 2.40478C1.6102 2.49944 1.6163 2.59263 1.62702 2.68437C1.54276 2.66821 1.45587 2.65945 1.36693 2.65945C0.61195 2.65945 0 3.26899 0 4.02087C0 4.77274 0.612009 5.38228 1.36693 5.38228H6.6827C7.43767 5.38228 8.04962 4.77274 8.04962 4.02087C8.04962 3.26899 7.43738 2.65945 6.68252 2.65945Z" transform="translate(21.1187 0.828125)" fill="black" fill-opacity="0.3"/>
<path d="M7.51425 7.03863H2.19843C0.986187 7.03863 0 6.05637 0 4.84907C0 3.83039 0.702184 2.9719 1.64982 2.72849C1.8938 1.18459 3.23875 0 4.85646 0C6.47416 0 7.81917 1.18459 8.06316 2.72849C9.01073 2.9719 9.71285 3.83039 9.71285 4.84907C9.71268 6.05637 8.72643 7.03863 7.51425 7.03863ZM2.19837 4.31575C1.90317 4.31575 1.663 4.55495 1.663 4.84896C1.663 5.14296 1.90323 5.38216 2.19837 5.38216H7.51419C7.80939 5.38216 8.04956 5.14296 8.04956 4.84896C8.04962 4.52116 7.7464 4.26171 7.41136 4.32573C7.15103 4.37545 6.88256 4.29906 6.68844 4.11949C6.4942 3.93993 6.39758 3.67895 6.42817 3.41675C6.43572 3.35198 6.43942 3.29187 6.43942 3.23281C6.43942 2.36347 5.72926 1.65623 4.8564 1.65623C3.98359 1.65623 3.27344 2.36352 3.27344 3.23281C3.27344 3.29175 3.27707 3.35192 3.28469 3.41675C3.31527 3.67895 3.21865 3.93993 3.02442 4.11949C2.83006 4.29906 2.56124 4.37568 2.30149 4.32573C2.26692 4.31919 2.23229 4.31575 2.19837 4.31575Z" transform="translate(20.2871)" fill="black"/>
<path d="M4.98882 0H0V20.3256H4.98882V0Z" transform="translate(13.772 5.84595)" fill="black" fill-opacity="0.3"/>
<path d="M8.12995 4.08634C8.2762 3.7369 8.3573 3.35361 8.3573 2.95147C8.3573 1.32144 7.03056 0 5.39387 0C3.75718 0 2.43045 1.32138 2.43045 2.95147C2.43045 3.35367 2.51155 3.73696 2.6578 4.08634C1.16478 4.23866 0 5.49497 0 7.02223C0 8.65227 1.32673 9.97371 2.96342 9.97371C3.96976 9.97371 4.85833 9.47364 5.39393 8.70998C5.92954 9.47376 6.81811 9.97371 7.82445 9.97371C9.46108 9.97371 10.7879 8.65232 10.7879 7.02223C10.7878 5.49497 9.62297 4.23866 8.12995 4.08634Z" transform="translate(0.832031 9.59033)" fill="black" fill-opacity="0.3"/>
<path d="M3.26547 0H0V6.87407H3.26547V0Z" transform="translate(23.7612 19.2979)" fill="black" fill-opacity="0.3"/>
<path d="M28.5116 20.326H27.9073V14.2801C27.9073 13.8227 27.535 13.4519 27.0758 13.4519C27.0674 13.4519 27.0593 13.4529 27.0508 13.4531C27.0424 13.4529 27.0343 13.4519 27.0259 13.4519H23.7607C23.3015 13.4519 22.9291 13.8227 22.9291 14.2801V20.326H19.5913V7.07481H26.2442V10.3882C26.2442 10.8456 26.6165 11.2164 27.0757 11.2164C27.5349 11.2164 27.9073 10.8456 27.9073 10.3882V6.24661C27.9073 5.78921 27.5349 5.4184 27.0757 5.4184H19.5913V0.828205C19.5913 0.370802 19.2189 0 18.7597 0H13.7709C13.3117 0 12.9394 0.370802 12.9394 0.828205V7.53058H10.0201C10.0201 7.52837 10.0203 7.52621 10.0203 7.52393C10.0203 5.43988 8.31786 3.74431 6.22537 3.74431C4.13289 3.74431 2.43045 5.43982 2.43045 7.52393C2.43045 7.70169 2.4427 7.87758 2.46702 8.05125C1.01109 8.58813 0 9.97779 0 11.5948C0 13.6788 1.70243 15.3744 3.79492 15.3744C4.42808 15.3744 5.04126 15.2156 5.58465 14.9257V20.3259H4.64751C4.18832 20.3259 3.81595 20.6967 3.81595 21.1541C3.81595 21.6115 4.18832 21.9823 4.64751 21.9823H6.41621H13.7709H18.7597H23.7607H27.0259H27.0758H28.5117C28.9709 21.9823 29.3432 21.6115 29.3432 21.1541C29.3432 20.6967 28.9709 20.326 28.5116 20.326ZM6.90711 12.8081C6.75154 12.5862 6.49701 12.4542 6.22543 12.4542C5.95385 12.4542 5.69932 12.5864 5.54376 12.8081C5.14421 13.3778 4.49042 13.7179 3.79504 13.7179C2.61954 13.7179 1.66317 12.7655 1.66317 11.5946C1.66317 10.5017 2.48477 9.5938 3.57414 9.48263C3.83593 9.45596 4.06949 9.30744 4.20402 9.0823C4.33855 8.8571 4.35818 8.58183 4.25693 8.34C4.14859 8.08124 4.09363 7.80673 4.09363 7.52399C4.09363 6.35323 5.04999 5.40072 6.22549 5.40072C7.40099 5.40072 8.35735 6.35317 8.35735 7.52399C8.35735 7.80673 8.30239 8.0813 8.19405 8.34C8.09274 8.58183 8.11237 8.8571 8.24696 9.0823C8.38155 9.3075 8.6151 9.45596 8.87684 9.48263C9.96633 9.5938 10.7878 10.5018 10.7878 11.5946C10.7878 12.7654 9.83145 13.7179 8.65594 13.7179C7.96044 13.718 7.30666 13.3779 6.90711 12.8081ZM12.9394 20.326H7.24777V15.103C7.69009 15.2794 8.16698 15.3744 8.65594 15.3744C10.7484 15.3744 12.4509 13.6789 12.4509 11.5948C12.4509 10.6823 12.1287 9.84234 11.5866 9.18705H12.9395V20.326H12.9394ZM14.6025 8.35885V1.65641H17.9282V6.24655V20.3259H14.6025V8.35885ZM24.5922 20.326V15.1083H26.1944V20.326H24.5922Z" transform="translate(0 5.01782)" fill="black"/>
</svg>
