<svg width="25" height="30" viewBox="0 0 25 30" fill="none" xmlns="http://www.w3.org/2000/svg">
<path d="M4.7436e-08 4.85421H5.10668V1.65403e-08L4.7436e-08 4.85421Z" transform="translate(0.883789 0.865967)" fill="black" fill-opacity="0.3"/>
<path d="M5.99027 6.58608H0.883593C0.523813 6.58608 0.199904 6.37221 0.0647324 6.04538C-0.070439 5.71854 0.0101498 5.34407 0.268476 5.09856L5.37516 0.244409C5.6299 0.00218254 6.00779 -0.0670754 6.33457 0.0685108C6.66135 0.204097 6.87382 0.518219 6.87382 0.865973V5.72024C6.87382 6.19842 6.47823 6.58608 5.99027 6.58608ZM3.06361 4.85422H5.10673V2.91213L3.06361 4.85422Z" fill="black"/>
<path d="M14.9118 18.7472C14.4239 18.7472 14.0283 18.3594 14.0283 17.8812V2.11711C14.0283 1.90471 13.8342 1.73192 13.5956 1.73192H0.883546C0.39565 1.73192 3.57594e-07 1.34426 3.57594e-07 0.865958C3.57594e-07 0.387657 0.395709 0 0.883546 0H13.5956C14.8087 0 15.7954 0.949689 15.7954 2.11705V17.8811C15.7954 18.3594 15.3999 18.7472 14.9118 18.7472Z" transform="translate(9.20459)" fill="black"/>
<path d="M22.8001 29.9999H2.19975C0.986733 29.9999 5.47338e-08 29.0502 5.47338e-08 27.8828V5.72008C5.47338e-08 5.48582 0.0968499 5.26158 0.26843 5.09851L5.37499 0.244364C5.72521 -0.0885665 6.28448 -0.0803047 6.62441 0.263055C6.96411 0.606298 6.95556 1.15456 6.60522 1.48749L1.76697 6.08652V27.8828C1.76697 28.0952 1.96109 28.268 2.19963 28.268H22.8001C23.0386 28.268 23.2327 28.0952 23.2327 27.8828V22.4534C23.2327 21.9751 23.6284 21.5874 24.1163 21.5874C24.6042 21.5874 24.9998 21.9751 24.9998 22.4534V27.8828C24.9999 29.0502 24.0131 29.9999 22.8001 29.9999Z" transform="translate(0 0.000244141)" fill="black"/>
<path d="M14.9119 6.58606H0.883606C0.395709 6.58606 6.01415e-05 6.19841 6.01415e-05 5.72011C6.01415e-05 5.2418 0.395709 4.85415 0.883606 4.85415H14.0284V2.33508C14.0284 2.00244 13.7523 1.73198 13.413 1.73198H0.883547C0.39565 1.73198 -6.56806e-08 1.34432 -6.56806e-08 0.866017C-6.56806e-08 0.387715 0.39565 0 0.883547 0H13.413C14.7266 0 15.7954 1.04754 15.7954 2.33502V5.72011C15.7954 6.19841 15.3999 6.58606 14.9119 6.58606Z" transform="translate(9.20459)" fill="black"/>
<path d="M14.4016 0H0V3.98338H14.4016V0Z" transform="translate(5.29883 10.1221)" fill="black" fill-opacity="0.3"/>
<path d="M15.2852 5.7153H0.883546C0.395649 5.7153 1.24063e-07 5.32759 1.24063e-07 4.84934V0.865959C1.24063e-07 0.387716 0.395649 -2.14577e-07 0.883546 -2.14577e-07H15.2852C15.7731 -2.14577e-07 16.1687 0.387657 16.1687 0.865959V4.84934C16.1687 5.32765 15.7731 5.7153 15.2852 5.7153ZM1.76709 3.98338H14.4017V1.73192H1.76709V3.98338Z" transform="translate(4.41602 9.25586)" fill="black"/>
<path d="M6.05754 1.73192H0.883546C0.39565 1.73192 -2.00691e-07 1.34426 -2.00691e-07 0.865958C-2.00691e-07 0.387715 0.39565 3.86239e-07 0.883546 3.86239e-07H6.05754C6.54544 3.86239e-07 6.94109 0.387657 6.94109 0.865958C6.94109 1.3442 6.54556 1.73192 6.05754 1.73192Z" transform="translate(4.42285 20.9175)" fill="black"/>
<path d="M7.30296 1.73192H0.883546C0.39565 1.73192 1.89744e-07 1.3442 1.89744e-07 0.865958C1.89744e-07 0.387715 0.39565 2.86103e-07 0.883546 2.86103e-07H7.30296C7.79086 2.86103e-07 8.18651 0.387657 8.18651 0.865958C8.18651 1.34426 7.79092 1.73192 7.30296 1.73192Z" transform="translate(4.42285 16.9341)" fill="black"/>
<path d="M2.62117 5.13798C4.0688 5.13798 5.24233 3.9878 5.24233 2.56899C5.24233 1.15017 4.0688 0 2.62117 0C1.17354 0 0 1.15017 0 2.56899C0 3.9878 1.17354 5.13798 2.62117 5.13798Z" transform="translate(14.4512 19.0122)" fill="black" fill-opacity="0.3"/>
<path d="M3.50471 6.86983C1.57226 6.86983 1.0217e-07 5.32899 1.0217e-07 3.43495C1.0217e-07 1.5409 1.57226 8.44003e-07 3.50471 8.44003e-07C5.43717 8.44003e-07 7.00942 1.54084 7.00942 3.43495C7.00942 5.32905 5.43723 6.86983 3.50471 6.86983ZM3.50471 1.73186C2.54649 1.73186 1.76703 2.4958 1.76703 3.43495C1.76703 4.37397 2.54649 5.13792 3.50471 5.13792C4.46293 5.13792 5.24239 4.37397 5.24239 3.43495C5.24239 2.4958 4.46293 1.73186 3.50471 1.73186Z" transform="translate(13.5679 18.1462)" fill="black"/>
</svg>
