<svg width="54" height="60" viewBox="0 0 54 60" fill="none" xmlns="http://www.w3.org/2000/svg">
<path d="M9.37852 3.29944H1.64972C0.738559 3.29944 4.57718e-07 2.56088 4.57718e-07 1.64972C4.57718e-07 0.738559 0.738559 6.43666e-07 1.64972 6.43666e-07H9.37852C10.2897 6.43666e-07 11.0282 0.738559 11.0282 1.64972C11.0282 2.56088 10.2897 3.29944 9.37852 3.29944Z" transform="translate(12.4092 27.4353)" fill="#E20613"/>
<path d="M9.37852 3.29944H1.64972C0.738559 3.29944 4.57718e-07 2.56088 4.57718e-07 1.64972C4.57718e-07 0.738559 0.738559 -1.37315e-06 1.64972 -1.37315e-06H9.37852C10.2897 -1.37315e-06 11.0282 0.738559 11.0282 1.64972C11.0282 2.56088 10.2897 3.29944 9.37852 3.29944Z" transform="translate(12.4092 34.9146)" fill="#E20613"/>
<path d="M9.37852 3.29944H1.64972C0.738559 3.29944 4.57718e-07 2.56088 4.57718e-07 1.64972C4.57718e-07 0.73856 0.738559 -7.72399e-07 1.64972 -7.72399e-07H9.37852C10.2897 -7.72399e-07 11.0282 0.73856 11.0282 1.64972C11.0282 2.56088 10.2897 3.29944 9.37852 3.29944Z" transform="translate(12.4092 42.394)" fill="#E20613"/>
<path d="M9.37852 3.29944H1.64972C0.738559 3.29944 4.57718e-07 2.56088 4.57718e-07 1.64972C4.57718e-07 0.738557 0.738559 6.5797e-07 1.64972 6.5797e-07H9.37852C10.2897 6.5797e-07 11.0282 0.738557 11.0282 1.64972C11.0282 2.56088 10.2897 3.29944 9.37852 3.29944Z" transform="translate(12.4092 49.8735)" fill="#E20613"/>
<path d="M18.1054 0H0V43.2214H18.1054V0Z" transform="translate(27.0242 15.1292)" fill="#E20613" fill-opacity="0.3"/>
<path d="M9.37852 3.29944H1.64972C0.738559 3.29944 -9.72651e-07 2.56088 -9.72651e-07 1.64972C-9.72651e-07 0.738559 0.738559 6.43666e-07 1.64972 6.43666e-07H9.37852C10.2897 6.43666e-07 11.0282 0.738559 11.0282 1.64972C11.0282 2.56088 10.2897 3.29944 9.37852 3.29944Z" transform="translate(30.5627 27.4353)" fill="#E20613"/>
<path d="M9.37852 3.29944H1.64972C0.738559 3.29944 -9.72651e-07 2.56088 -9.72651e-07 1.64972C-9.72651e-07 0.738559 0.738559 -1.37315e-06 1.64972 -1.37315e-06H9.37852C10.2897 -1.37315e-06 11.0282 0.738559 11.0282 1.64972C11.0282 2.56088 10.2897 3.29944 9.37852 3.29944Z" transform="translate(30.5627 34.9146)" fill="#E20613"/>
<path d="M9.37852 3.29944H1.64972C0.738559 3.29944 -9.72651e-07 2.56088 -9.72651e-07 1.64972C-9.72651e-07 0.73856 0.738559 -7.72399e-07 1.64972 -7.72399e-07H9.37852C10.2897 -7.72399e-07 11.0282 0.73856 11.0282 1.64972C11.0282 2.56088 10.2897 3.29944 9.37852 3.29944Z" transform="translate(30.5627 42.394)" fill="#E20613"/>
<path d="M9.37852 3.29944H1.64972C0.738559 3.29944 -9.72651e-07 2.56088 -9.72651e-07 1.64972C-9.72651e-07 0.738557 0.738559 6.5797e-07 1.64972 6.5797e-07H9.37852C10.2897 6.5797e-07 11.0282 0.738557 11.0282 1.64972C11.0282 2.56088 10.2897 3.29944 9.37852 3.29944Z" transform="translate(30.5627 49.8735)" fill="#E20613"/>
<path d="M52.3503 56.7002H46.779V15.1291C46.779 14.2179 46.0405 13.4793 45.1293 13.4793H42.2989H31.5038V8.64926H42.2989C43.2101 8.64926 43.9487 7.91062 43.9487 6.99937C43.9487 6.08813 43.2101 5.34949 42.2989 5.34949H37.7263V1.64988C37.7264 0.738633 36.9878 0 36.0767 0C35.1655 0 34.427 0.738633 34.427 1.64988V5.34949H29.8544C28.9432 5.34949 28.2047 6.08813 28.2047 6.99937V13.4794H27.024C26.1129 13.4794 25.3743 14.218 25.3743 15.1293V20.6085H8.87056C7.9594 20.6085 7.22084 21.3471 7.22084 22.2584V28.4326C7.22084 29.3439 7.9594 30.0825 8.87056 30.0825C9.78172 30.0825 10.5203 29.3439 10.5203 28.4326V23.9082H25.3263V56.7004H10.5203V36.7396C10.5203 35.8283 9.78172 35.0897 8.87056 35.0897C7.9594 35.0897 7.22084 35.8283 7.22084 36.7396V56.7002H1.64972C0.738559 56.7002 -3.93351e-08 57.4389 -3.93351e-08 58.3501C-3.93351e-08 59.2614 0.738559 60 1.64972 60H8.87056H26.976H27.0238H45.1292H52.3503C53.2614 60 54 59.2614 54 58.3501C54 57.4389 53.2614 56.7002 52.3503 56.7002ZM28.6737 56.7002V16.7791H29.8544H42.2992H43.4798V56.7004H28.6737V56.7002Z" fill="#E20613"/>
<path d="M9.83955 9.84027C12.1066 9.24056 13.8654 8.01699 14.5116 7.5232C14.6528 7.41519 14.6528 7.20349 14.5116 7.09549C13.8654 6.6017 12.1065 5.37812 9.83955 4.77842C9.2399 2.51111 8.01645 0.752081 7.52258 0.105882C7.41458 -0.0352947 7.20291 -0.0352947 7.09491 0.105882C6.60117 0.752211 5.37772 2.51124 4.77794 4.77842C2.51085 5.37812 0.752136 6.6017 0.105871 7.09549C-0.0352912 7.20349 -0.0352912 7.41519 0.105871 7.5232C0.752136 8.01699 2.51099 9.24056 4.77794 9.84027C5.37759 12.1076 6.60104 13.8666 7.09491 14.5128C7.20291 14.654 7.41458 14.654 7.52258 14.5128C8.01632 13.8665 9.23977 12.1076 9.83955 9.84027Z" transform="translate(7.68579 1.68604)" fill="#E20613" fill-opacity="0.39"/>
<path d="M8.99417 17.9901C8.38029 17.9901 7.81434 17.7101 7.44139 17.2221C6.95182 16.5812 5.83689 14.9835 5.11358 12.8759C3.00659 12.1525 1.40901 11.0379 0.768101 10.548C0.279843 10.1748 -9.24552e-07 9.60875 -9.24552e-07 8.99494C-9.24552e-07 8.38113 0.279713 7.81512 0.76784 7.44213C1.40888 6.95212 3.00672 5.83734 5.11371 5.11396C5.83702 3.0065 6.95195 1.40876 7.44152 0.768048C7.81447 0.280003 8.38029 -7.65223e-07 8.9943 -7.65223e-07C9.60818 -7.65223e-07 10.1741 0.280003 10.5471 0.768048C11.0367 1.40889 12.1516 3.00663 12.8749 5.11396C14.9819 5.83734 16.5795 6.95226 17.2204 7.442C17.7086 7.81525 17.9885 8.38126 17.9885 8.99507C17.9885 9.60888 17.7088 10.1749 17.2206 10.5479C16.5796 11.0379 14.9818 12.1527 12.8748 12.8759C12.1515 14.9834 11.0365 16.5812 10.547 17.2221C10.174 17.7103 9.60805 17.9901 8.99417 17.9901ZM4.59777 8.99507C5.2503 9.33463 6.03094 9.66843 6.89424 9.89672C7.48017 10.0516 7.93761 10.5092 8.09261 11.0951C8.32075 11.9585 8.65465 12.7392 8.99417 13.3918C9.33369 12.7392 9.66747 11.9585 9.89573 11.0951C10.0507 10.5092 10.5083 10.0516 11.0941 9.89672C11.9574 9.6683 12.7379 9.33463 13.3906 8.99507C12.738 8.65552 11.9574 8.32171 11.094 8.09342C10.5082 7.93853 10.0509 7.48092 9.89573 6.89505C9.6676 6.03167 9.33369 5.25096 8.99417 4.59836C8.65465 5.25096 8.32088 6.03167 8.09261 6.89505C7.93761 7.48092 7.48004 7.93853 6.89437 8.09342C6.03094 8.32171 5.25043 8.65565 4.59777 8.99507Z" transform="translate(6)" fill="#E20613"/>
</svg>
