<svg width="60" height="60" viewBox="0 0 60 60" fill="none" xmlns="http://www.w3.org/2000/svg">
<path d="M39.3525 1.43051e-07H1.11445C0.498984 1.43051e-07 0.000234582 0.49875 0.000234582 1.11422V13.3907H13.2679V27.0759H3.3617e-07V39.3524C3.3617e-07 39.9679 0.498984 40.4666 1.11422 40.4666H14.1928H39.3521C39.9676 40.4666 40.4664 39.9679 40.4664 39.3524V12.1989V1.11422C40.4667 0.49875 39.9677 1.43051e-07 39.3525 1.43051e-07Z" transform="translate(9.7666 9.76685)" fill="#E20613" fill-opacity="0.3"/>
<path d="M41.2018 44.165H2.96355C1.32949 44.165 -3.50475e-07 42.8355 -3.50475e-07 41.2015V28.9253C-3.50475e-07 27.9039 0.82793 27.0759 1.84934 27.0759H13.2676V17.0893H1.84957C0.828164 17.0893 0.00023479 16.2614 0.00023479 15.24V2.96355C0.00023479 1.32949 1.32973 3.50475e-07 2.96379 3.50475e-07H41.202C42.836 3.50475e-07 44.1655 1.32949 44.1655 2.96355V41.2016C44.1654 42.8357 42.8359 44.165 41.2018 44.165ZM3.69891 40.4665H40.4667V3.69867H3.69891V13.3907H15.1172C16.1386 13.3907 16.9665 14.2186 16.9665 15.24V28.9253C16.9665 29.9467 16.1386 30.7746 15.1172 30.7746H3.69891V40.4665Z" transform="translate(7.91724 7.91748)" fill="#E20613"/>
<path d="M55.4135 60H4.58672C2.05758 60 0 57.9424 0 55.4134V40.5343C0 39.5129 0.82793 38.685 1.84934 38.685C2.87074 38.685 3.69867 39.5129 3.69867 40.5343V55.4135C3.69867 55.903 4.09699 56.3016 4.58672 56.3016H55.4135C55.903 56.3016 56.3016 55.9032 56.3016 55.4135V4.58672C56.3016 4.09723 55.9032 3.69867 55.4135 3.69867H4.58672C4.09699 3.69867 3.69867 4.09699 3.69867 4.58672V29.6699C3.69867 30.6913 2.87074 31.5192 1.84934 31.5192C0.82793 31.5192 0 30.6913 0 29.6699V4.58672C0 2.05758 2.05758 0 4.58672 0H55.4135C57.9427 0 60.0002 2.05758 60.0002 4.58672V55.4135C60 57.9424 57.9424 60 55.4135 60Z" fill="#E20613"/>
<path d="M1.84934 36.767C0.82793 36.767 -1.43051e-07 35.9391 -1.43051e-07 34.9177V1.84934C-1.43051e-07 0.82793 0.82793 3.50475e-07 1.84934 3.50475e-07C2.87074 3.50475e-07 3.69867 0.82793 3.69867 1.84934V34.9178C3.69867 35.9391 2.87074 36.767 1.84934 36.767Z" transform="translate(21.1851 7.91748)" fill="#E20613"/>
<path d="M1.84934 36.7672C0.827931 36.7672 5.43594e-07 35.9393 5.43594e-07 34.9179V1.84934C5.43594e-07 0.827931 0.827931 1.57356e-07 1.84934 1.57356e-07C2.87074 1.57356e-07 3.69867 0.827931 3.69867 1.84934V34.9179C3.69867 35.9393 2.87063 36.7672 1.84934 36.7672Z" transform="translate(34.8704 15.3154)" fill="#E20613"/>
<path d="M42.1928 3.69867H1.84934C0.82793 3.69867 4.14848e-07 2.87074 4.14848e-07 1.84934C4.14848e-07 0.827929 0.82793 2.14577e-07 1.84934 2.14577e-07H42.193C43.2144 2.14577e-07 44.0423 0.827929 44.0423 1.84934C44.0423 2.87074 43.2142 3.69867 42.1928 3.69867Z" transform="translate(7.91748 21.3081)" fill="#E20613"/>
<path d="M42.1308 3.69867H1.84934C0.82793 3.69867 3.3617e-07 2.87074 3.3617e-07 1.84934C3.3617e-07 0.827929 0.82793 -8.86917e-07 1.84934 -8.86917e-07H42.1309C43.1523 -8.86917e-07 43.9802 0.827929 43.9802 1.84934C43.9801 2.87074 43.1522 3.69867 42.1308 3.69867Z" transform="translate(7.97949 34.9934)" fill="#E20613"/>
</svg>
