<svg width="49" height="60" viewBox="0 0 49 60" fill="none" xmlns="http://www.w3.org/2000/svg">
<path d="M9.20659 0H0V9.61441H9.20659V0Z" transform="translate(11.8523 40.2383)" fill="#E20613" fill-opacity="0.3"/>
<path d="M9.20659 0H0V9.61441H9.20659V0Z" transform="translate(27.9409 23.5608)" fill="#E20613" fill-opacity="0.3"/>
<path d="M47.2182 56.4391H44.9911V14.8308C44.9911 13.8475 44.1934 13.0504 43.2095 13.0504H41.1604H9.62114V3.56086H39.3787V7.23949C39.3787 8.22281 40.1765 9.01992 41.1604 9.01992C42.1443 9.01992 42.9421 8.22281 42.9421 7.23949V1.78043C42.9422 0.797109 42.1443 0 41.1604 0H7.83947C6.85546 0 6.05779 0.797109 6.05779 1.78043V13.0504H5.79053C4.80652 13.0504 4.00886 13.8475 4.00886 14.8308V45.0451C4.00886 46.0284 4.80652 46.8255 5.79053 46.8255C6.77454 46.8255 7.57221 46.0284 7.57221 45.0451V16.6112H7.83947H41.1604H41.4277V56.4391H5.79053H1.78168C0.797667 56.4391 2.14727e-07 57.2362 2.14727e-07 58.2196C2.14727e-07 59.2029 0.797667 60 1.78168 60H5.79053H43.2095H47.2183C48.2022 60 49 59.2029 49 58.2196C48.9999 57.2362 48.2021 56.4391 47.2182 56.4391Z" fill="#E20613"/>
<path d="M1.78167 13.1753H10.9883C11.9723 13.1753 12.7699 12.3782 12.7699 11.3948V1.78043C12.7699 0.797109 11.9723 7.72476e-07 10.9883 7.72476e-07H1.78167C0.797667 7.72476e-07 3.43563e-07 0.797109 3.43563e-07 1.78043V11.3948C3.43563e-07 12.3782 0.797667 13.1753 1.78167 13.1753ZM3.56335 3.56086H9.20648V9.61441H3.56335V3.56086Z" transform="translate(10.0701 21.7808)" fill="#E20613"/>
<path d="M3.43563e-07 11.3948C3.43563e-07 12.3782 0.797667 13.1753 1.78167 13.1753H10.9883C11.9723 13.1753 12.7699 12.3782 12.7699 11.3948V1.78043C12.7699 0.797108 11.9723 -3.43323e-07 10.9883 -3.43323e-07H1.78167C0.797667 -3.43323e-07 3.43563e-07 0.797108 3.43563e-07 1.78043V11.3948ZM3.56335 3.56086H9.20648V9.61441H3.56335V3.56086Z" transform="translate(10.0701 38.4578)" fill="#E20613"/>
<path d="M1.78168 13.1753H10.9883C11.9722 13.1753 12.7699 12.3782 12.7699 11.3948V1.78043C12.7699 0.797109 11.9722 7.72476e-07 10.9883 7.72476e-07H1.78168C0.797784 7.72476e-07 9.44798e-07 0.797109 9.44798e-07 1.78043V11.3948C9.44798e-07 12.3782 0.797784 13.1753 1.78168 13.1753ZM3.56335 3.56086H9.20648V9.61441H3.56335V3.56086Z" transform="translate(26.1594 21.7808)" fill="#E20613"/>
<path d="M9.44798e-07 11.3948C9.44798e-07 12.3782 0.797784 13.1753 1.78168 13.1753H10.9883C11.9722 13.1753 12.7699 12.3782 12.7699 11.3948V1.78043C12.7699 0.797108 11.9722 -3.43323e-07 10.9883 -3.43323e-07H1.78168C0.797784 -3.43323e-07 9.44798e-07 0.797108 9.44798e-07 1.78043V11.3948ZM3.56335 3.56086H9.20648V9.61441H3.56335V3.56086Z" transform="translate(26.1594 38.4578)" fill="#E20613"/>
</svg>
