<svg width="20" height="30" viewBox="0 0 20 30" fill="none" xmlns="http://www.w3.org/2000/svg">
<path d="M9.15253 -2.6375e-08C4.09769 -2.6375e-08 -5.05609e-08 4.05772 -5.05609e-08 9.06324C-5.05609e-08 14.0688 4.09769 18.1265 9.15253 18.1265C14.2074 18.1265 18.3051 14.0688 18.3051 9.06324C18.3051 4.05772 14.2072 -2.6375e-08 9.15253 -2.6375e-08ZM11.6431 12.8585L9.15247 11.5618L6.66185 12.8585L7.13753 10.1122L5.12265 8.16735L7.90722 7.76663L9.15253 5.26803L10.3978 7.76663L13.1824 8.16735L11.1673 10.1122L11.6431 12.8585Z" transform="translate(0.847168 0.839111)" fill="black" fill-opacity="0.3"/>
<path d="M17.7667 18.4786C17.2987 18.4786 16.9193 18.8543 16.9193 19.3178V24.82L14.3567 23.1113C14.0706 22.9206 13.6962 22.9206 13.41 23.1113L10.8475 24.82V21.6974C10.8475 21.2339 10.4681 20.8582 10 20.8582C9.53199 20.8582 9.15259 21.2339 9.15259 21.6974V27.5839L6.58996 25.8753C6.30393 25.6846 5.92956 25.6845 5.64335 25.8753L3.08072 27.584V17.0447C4.87845 18.7533 7.31747 19.8048 10 19.8048C15.514 19.8048 20 15.3626 20 9.90242C20 4.44227 15.5139 0 9.99997 0C4.48603 0 3.25034e-08 4.44227 3.25034e-08 9.90242C3.25034e-08 11.7349 0.50591 13.4524 1.38578 14.9262V29.1608C1.38578 29.4709 1.55856 29.7558 1.83512 29.9016C2.11157 30.0472 2.44665 30.0302 2.70659 29.8569L6.11665 27.5832L9.52655 29.8569C9.66909 29.9519 9.83423 30 9.99991 30C10.1364 30 10.2732 29.9674 10.3981 29.9016C10.6746 29.7558 10.8474 29.471 10.8474 29.1608V26.8435L13.8833 24.8192L17.2934 27.0929C17.436 27.1879 17.6011 27.236 17.7668 27.236C17.9032 27.236 18.0401 27.2034 18.1649 27.1376C18.4414 26.9919 18.6143 26.707 18.6143 26.3968V19.3179C18.6142 18.8543 18.2348 18.4786 17.7667 18.4786ZM9.99997 1.67835C14.5794 1.67835 18.3051 5.36758 18.3051 9.90242C18.3051 14.4373 14.5795 18.1265 9.99997 18.1265C5.42045 18.1265 1.69489 14.4373 1.69489 9.90242C1.69489 5.36758 5.42045 1.67835 9.99997 1.67835Z" fill="black"/>
<path d="M1.9518 5.97654L1.55146 8.28794C1.4969 8.6027 1.62755 8.92092 1.88855 9.10877C2.14955 9.29651 2.49552 9.32135 2.78102 9.17264L4.87726 8.08134L6.97351 9.17264C7.09747 9.23715 7.23291 9.26897 7.36776 9.26897C7.54344 9.26897 7.71835 9.21494 7.86598 9.10866C8.12698 8.92092 8.25769 8.6027 8.20307 8.28782L7.80272 5.97642L9.49867 4.33944C9.72968 4.11649 9.81281 3.78297 9.71317 3.47917C9.61352 3.17536 9.34826 2.95399 9.02904 2.908L6.6854 2.57073L5.63725 0.467752C5.49447 0.181347 5.19986 -7.15253e-08 4.87732 -7.15253e-08C4.55478 -7.15253e-08 4.26011 0.181347 4.11739 0.467752L3.06924 2.57073L0.725609 2.908C0.406383 2.95388 0.14118 3.17536 0.0414776 3.47917C-0.0581659 3.78297 0.0249689 4.11643 0.255971 4.33944L1.9518 5.97654ZM3.75385 4.1684C4.02988 4.12873 4.26852 3.957 4.39189 3.70938L4.87732 2.7355L5.36276 3.70938C5.48625 3.957 5.72477 4.12873 6.0008 4.1684L7.08611 4.32455L6.30079 5.08258C6.10103 5.27535 6.00985 5.55308 6.05707 5.82537L6.24251 6.8957L5.27175 6.39044C5.14827 6.32617 5.01288 6.294 4.87744 6.294C4.742 6.294 4.6065 6.32617 4.48313 6.39044L3.51237 6.8957L3.69781 5.82537C3.74503 5.55314 3.65385 5.27535 3.45409 5.08258L2.66878 4.32455L3.75385 4.1684Z" transform="translate(5.12256 5.26782)" fill="black"/>
</svg>
