<svg width="50" height="60" viewBox="0 0 50 60" fill="none" xmlns="http://www.w3.org/2000/svg">
<path d="M9.29834e-08 9.70841H10.0101V3.30806e-08L9.29834e-08 9.70841Z" transform="translate(1.73206 1.73193)" fill="#E20613" fill-opacity="0.3"/>
<path d="M11.7421 13.1722H1.73201C1.02677 13.1722 0.391849 12.7444 0.126888 12.0908C-0.138074 11.4371 0.0198954 10.6881 0.526263 10.1971L10.5363 0.488819C11.0357 0.00436508 11.7764 -0.134151 12.4169 0.137022C13.0575 0.408194 13.474 1.03644 13.474 1.73195V11.4405C13.474 12.3968 12.6985 13.1722 11.7421 13.1722ZM6.00526 9.70844H10.0101V5.82426L6.00526 9.70844Z" fill="#E20613"/>
<path d="M29.23 37.4943C28.2736 37.4943 27.4981 36.7189 27.4981 35.7624V4.23423C27.4981 3.80942 27.1176 3.46383 26.65 3.46383H1.73192C0.775548 3.46383 7.00952e-07 2.68852 7.00952e-07 1.73192C7.00952e-07 0.775314 0.775665 0 1.73192 0H26.65C29.0277 0 30.9619 1.89938 30.9619 4.23411V35.7623C30.9619 36.7189 30.1866 37.4943 29.23 37.4943Z" transform="translate(18.0427)" fill="#E20613"/>
<path d="M44.6926 59.9998H4.31192C1.93418 59.9998 1.07289e-07 58.1004 1.07289e-07 55.7657V11.4402C1.07289e-07 10.9716 0.189844 10.5232 0.526173 10.197L10.536 0.488728C11.2225 -0.177133 12.3188 -0.160609 12.9851 0.52611C13.651 1.2126 13.6342 2.30912 12.9475 2.97498L3.4636 12.173V55.7657C3.4636 56.1905 3.84411 56.5361 4.31169 56.5361H44.6924C45.16 56.5361 45.5405 56.1904 45.5405 55.7657V44.9067C45.5405 43.9502 46.3161 43.1748 47.2725 43.1748C48.2288 43.1748 49.0044 43.9502 49.0044 44.9067V55.7657C49.0045 58.1004 47.0702 59.9998 44.6926 59.9998Z" transform="translate(0.000244141 0.000244141)" fill="#E20613"/>
<path d="M29.2301 13.1721H1.73203C0.775665 13.1721 0.000117889 12.3968 0.000117889 11.4402C0.000117889 10.4836 0.775665 9.7083 1.73203 9.7083H27.4982V4.67016C27.4982 4.00489 26.9571 3.46395 26.292 3.46395H1.73192C0.775549 3.46395 -1.28746e-07 2.68864 -1.28746e-07 1.73203C-1.28746e-07 0.775431 0.775549 0 1.73192 0H26.292C28.867 0 30.962 2.09508 30.962 4.67005V11.4402C30.962 12.3968 30.1867 13.1721 29.2301 13.1721Z" transform="translate(18.0426)" fill="#E20613"/>
<path d="M28.2299 0H0V7.96677H28.2299V0Z" transform="translate(10.3873 20.2441)" fill="#E20613" fill-opacity="0.3"/>
<path d="M29.9618 11.4306H1.73192C0.775547 11.4306 2.43187e-07 10.6552 2.43187e-07 9.69869V1.73192C2.43187e-07 0.775431 0.775547 -4.29154e-07 1.73192 -4.29154e-07H29.9618C30.9182 -4.29154e-07 31.6938 0.775314 31.6938 1.73192V9.69869C31.6938 10.6553 30.9182 11.4306 29.9618 11.4306ZM3.46383 7.96677H28.23V3.46383H3.46383V7.96677Z" transform="translate(8.65564 18.5115)" fill="#E20613"/>
<path d="M11.8739 3.46383H1.73192C0.775548 3.46383 -3.93391e-07 2.68852 -3.93391e-07 1.73192C-3.93391e-07 0.775431 0.775548 7.72477e-07 1.73192 7.72477e-07H11.8739C12.8303 7.72477e-07 13.6058 0.775313 13.6058 1.73192C13.6058 2.6884 12.8305 3.46383 11.8739 3.46383Z" transform="translate(8.6698 41.8347)" fill="#E20613"/>
<path d="M14.3152 3.46383H1.73192C0.775547 3.46383 3.71934e-07 2.6884 3.71934e-07 1.73192C3.71934e-07 0.77543 0.775547 5.72205e-07 1.73192 5.72205e-07H14.3152C15.2715 5.72205e-07 16.0471 0.775313 16.0471 1.73192C16.0471 2.68852 15.2717 3.46383 14.3152 3.46383Z" transform="translate(8.67004 33.8679)" fill="#E20613"/>
<path d="M5.13798 10.276C7.9756 10.276 10.276 7.9756 10.276 5.13798C10.276 2.30035 7.9756 0 5.13798 0C2.30035 0 0 2.30035 0 5.13798C0 7.9756 2.30035 10.276 5.13798 10.276Z" transform="translate(28.3269 38.0244)" fill="#E20613" fill-opacity="0.3"/>
<path d="M6.86989 13.7397C3.08192 13.7397 2.00272e-07 10.658 2.00272e-07 6.86989C2.00272e-07 3.0818 3.08192 1.68801e-06 6.86989 1.68801e-06C10.6579 1.68801e-06 13.7398 3.08168 13.7398 6.86989C13.7398 10.6581 10.658 13.7397 6.86989 13.7397ZM6.86989 3.46372C4.99161 3.46372 3.46372 4.99161 3.46372 6.86989C3.46372 8.74794 4.99161 10.2758 6.86989 10.2758C8.74818 10.2758 10.2761 8.74794 10.2761 6.86989C10.2761 4.99161 8.74818 3.46372 6.86989 3.46372Z" transform="translate(26.5951 36.2925)" fill="#E20613"/>
</svg>
