<svg width="30" height="30" viewBox="0 0 30 30" fill="none" xmlns="http://www.w3.org/2000/svg">
<path d="M29.1502 30H0.849727C0.380449 30 0 29.6196 0 29.1503V0.849727C0 0.380449 0.380508 0 0.849727 0H29.1502C29.6195 0 29.9999 0.380449 29.9999 0.849727V23.4172C29.9999 23.8864 29.6195 24.2669 29.1502 24.2669C28.6809 24.2669 28.3005 23.8864 28.3005 23.4172V1.69945H1.69945V28.3005H29.1502C29.6195 28.3005 29.9999 28.681 29.9999 29.1503C29.9999 29.6196 29.6195 30 29.1502 30Z" fill="black"/>
<path d="M20.8964 21.7463H0.849726C0.380449 21.7463 -7.86781e-08 21.3658 -7.86781e-08 20.8965V4.91074C-7.86781e-08 4.44147 0.380449 4.06102 0.849726 4.06102C1.319 4.06102 1.69945 4.44147 1.69945 4.91074V20.0469H20.0467V1.69945H0.849726C0.380449 1.69945 -7.86781e-08 1.319 -7.86781e-08 0.849726C-7.86781e-08 0.380449 0.380449 -4.64916e-08 0.849726 -4.64916e-08H20.8965C21.3657 -4.64916e-08 21.7462 0.380449 21.7462 0.849726V20.8965C21.7461 21.3659 21.3657 21.7463 20.8964 21.7463Z" transform="translate(4.12695 4.12695)" fill="black"/>
</svg>
