<svg width="30" height="30" viewBox="0 0 30 30" fill="none" xmlns="http://www.w3.org/2000/svg">
<path d="M27.7068 30H2.29324C1.02879 30 0 28.9712 0 27.7068V20.2672C0 19.7566 0.414082 19.3426 0.924668 19.3426C1.43525 19.3426 1.84934 19.7566 1.84934 20.2672V27.7068C1.84934 27.9516 2.04844 28.1507 2.29324 28.1507H27.7068C27.9516 28.1507 28.1507 27.9516 28.1507 27.7068V2.29324C28.1507 2.0485 27.9516 1.84934 27.7068 1.84934H2.29324C2.04838 1.84934 1.84934 2.04844 1.84934 2.29324V14.8349C1.84934 15.3455 1.43525 15.7596 0.924668 15.7596C0.414082 15.7596 0 15.3456 0 14.835V2.29324C0 1.02879 1.02879 0 2.29324 0H27.7068C28.9713 0 30.0001 1.02879 30.0001 2.29324V27.7068C30 28.9712 28.9712 30 27.7068 30Z" fill="black"/>
<path d="M11.0413 15.9834H1.48178C0.664746 15.9834 -2.07424e-07 15.3188 -2.07424e-07 14.5016V6.39346C-2.07424e-07 5.88287 0.414082 5.46879 0.924668 5.46879C1.43525 5.46879 1.84934 5.88287 1.84934 6.39346V14.134H10.1167V0.924668C10.1167 0.414082 10.5308 2.7895e-07 11.0413 2.7895e-07C11.5519 2.7895e-07 11.966 0.414082 11.966 0.924668V15.0587C11.966 15.5693 11.5519 15.9834 11.0413 15.9834Z" transform="translate(3.9585 10.0581)" fill="black"/>
<path d="M11.0413 7.94871C10.5308 7.94871 10.1167 7.53463 10.1167 7.02404V1.84934H1.84934V7.02416C1.84934 7.53475 1.43525 7.94883 0.924668 7.94883C0.414082 7.94883 -2.07424e-07 7.53475 -2.07424e-07 7.02416V1.48178C-2.07424e-07 0.664629 0.664629 -2.07424e-07 1.48178 -2.07424e-07H11.0413C11.5519 -2.07424e-07 11.966 0.414082 11.966 0.924668V7.02416C11.966 7.53475 11.5519 7.94871 11.0413 7.94871Z" transform="translate(3.9585 3.95874)" fill="black"/>
<path d="M9.55945 1.35899e-07H4.14848e-07V6.09937V11.5653V20.2333H9.55957C9.8673 20.2333 10.1167 19.9838 10.1167 19.6762V6.09937V0.557109C10.1167 0.249375 9.86719 1.35899e-07 9.55945 1.35899e-07Z" transform="translate(15 4.8833)" fill="black" fill-opacity="0.3"/>
<path d="M10.4841 22.0826H0.924668C0.414082 22.0826 7.15256e-08 21.6686 7.15256e-08 21.158V0.924668C7.15256e-08 0.414082 0.414082 -2.07424e-07 0.924668 -2.07424e-07H10.4842C11.3014 -2.07424e-07 11.966 0.664746 11.966 1.48178V20.6009C11.966 21.4178 11.3013 22.0826 10.4841 22.0826ZM1.84934 20.2333H10.1167V1.84934H1.84934V20.2333Z" transform="translate(14.0752 3.95874)" fill="black"/>
</svg>
