<svg width="30" height="30" viewBox="0 0 30 30" fill="none" xmlns="http://www.w3.org/2000/svg">
<path d="M21.3116 30H2.43599C1.09278 30 0 28.9073 0 27.5641V2.43599C0 1.09278 1.09278 0 2.43599 0H2.93878C4.28199 0 5.37477 1.09278 5.37477 2.43599V10.9639C5.37477 11.425 5.00088 11.799 4.53969 11.799C4.07849 11.799 3.7046 11.425 3.7046 10.9639V2.43599C3.7046 2.0137 3.36107 1.67016 2.93878 1.67016H2.43599C2.0137 1.67016 1.67016 2.01382 1.67016 2.43599V27.5641C1.67016 27.9864 2.0137 28.33 2.43599 28.33H21.3115C21.7727 28.33 22.1466 28.7039 22.1466 29.165C22.1466 29.6262 21.7728 30 21.3116 30Z" fill="black"/>
<path d="M13.7768 5.37494H12.0292C11.568 5.37494 11.1941 5.001 11.1941 4.53986C11.1941 4.07873 11.568 3.70478 12.0292 3.70478H13.7768C14.1991 3.70478 14.5426 3.36124 14.5426 2.93896V2.43616C14.5426 2.01376 14.1991 1.67016 13.7768 1.67016H0.835081C0.373888 1.67016 -3.64782e-07 1.29622 -3.64782e-07 0.835082C-3.64782e-07 0.373948 0.373888 -1.00136e-07 0.835081 -1.00136e-07H13.7768C15.12 -1.00136e-07 16.2128 1.09284 16.2128 2.43616V2.93896C16.2128 4.28228 15.12 5.37494 13.7768 5.37494Z" transform="translate(13.7871 24.625)" fill="black"/>
<path d="M9.82123 8.5771C8.5556 4.73234 5.5151 1.69202 1.67034 0.426388C1.12864 0.248028 0.570881 0.105234 -2.18154e-07 -6.72343e-07V10.2475H10.2475C10.1423 9.67656 9.99941 9.11886 9.82123 8.5771Z" transform="translate(4.54004 15.2129)" fill="black" fill-opacity="0.3"/>
<path d="M11.0826 11.9176H0.835081C0.373888 11.9176 6.97377e-08 11.5437 6.97377e-08 11.0825V0.835023C6.97377e-08 0.586995 0.110215 0.351857 0.300821 0.193184C0.491486 0.0345116 0.742855 -0.0310544 0.986489 0.0138286C1.58942 0.124981 2.18831 0.277853 2.76652 0.468283C6.85696 1.81477 10.1029 5.0607 11.4496 9.15115C11.64 9.73012 11.7929 10.3289 11.9039 10.9312C11.9488 11.175 11.8831 11.4263 11.7244 11.6168C11.5657 11.8074 11.3306 11.9176 11.0826 11.9176ZM1.67016 10.2474H10.0359C9.98307 10.0541 9.92535 9.86236 9.86312 9.67316C8.68164 6.08417 5.8335 3.23615 2.24433 2.05472C2.05524 1.99243 1.86364 1.93471 1.67022 1.88186V10.2474H1.67016Z" transform="translate(3.70459 14.3777)" fill="black"/>
</svg>
