<svg width="30" height="30" viewBox="0 0 30 30" fill="none" xmlns="http://www.w3.org/2000/svg">
<path d="M27.4347 30C26.996 30 26.6403 29.6443 26.6403 29.2056C26.6403 28.767 26.9959 28.4113 27.4347 28.4113C28.0362 28.4113 28.2728 27.9529 28.331 27.8123C28.3892 27.6718 28.546 27.1803 28.1206 26.755L3.24498 1.87938C2.81971 1.45399 2.32817 1.61073 2.18766 1.66915C2.04715 1.72727 1.58871 1.96388 1.58871 2.5654V27.4411C1.58871 27.976 2.02395 28.4113 2.55891 28.4113H19.7073C20.1459 28.4113 20.5016 28.767 20.5016 29.2056C20.5016 29.6443 20.146 30 19.7073 30H2.55891C1.14791 30 0 28.8521 0 27.4412V2.56534C0 1.51071 0.605274 0.604851 1.57963 0.201258C2.55404 -0.202278 3.62262 0.0102418 4.36834 0.755965L29.244 25.6317C29.9898 26.3774 30.2023 27.446 29.7987 28.4204C29.3952 29.3947 28.4892 30 27.4347 30Z" fill="black"/>
<path d="M12.2484 13.0427H0.794356C0.583711 13.0427 0.381621 12.959 0.232676 12.8101C0.0837306 12.6611 5.36442e-08 12.459 5.36442e-08 12.2484L5.86152e-05 0.794356C5.86152e-05 0.355723 0.355781 3.21865e-07 0.794414 3.21865e-07C1.23311 3.21865e-07 1.58877 0.355723 1.58877 0.794356L1.58871 11.454H12.2484C12.6871 11.454 13.0428 11.8098 13.0428 12.2484C13.0428 12.687 12.6871 13.0427 12.2484 13.0427Z" transform="translate(4.31641 12.6409)" fill="black"/>
<path d="M9.38774e-09 3.61228L24.7961 28.4083H26.6403C28.2124 28.4083 28.9996 26.5076 27.8881 25.396L3.01231 0.520405C1.90072 -0.591295 9.38774e-09 0.196088 9.38774e-09 1.7681V3.61228Z" transform="translate(0.794434 0.797363)" fill="black" fill-opacity="0.3"/>
<path d="M27.4346 29.997H25.5904C25.3797 29.997 25.1776 29.9133 25.0287 29.7643L0.232676 4.9684C0.0837305 4.81934 0 4.61737 0 4.4066V2.56236C0 1.14943 1.15365 0 2.57168 0C3.24475 0 3.88272 0.267363 4.3684 0.75293L29.2441 25.6286C29.9898 26.3744 30.2024 27.443 29.7988 28.4172C29.3951 29.3917 28.4892 29.997 27.4346 29.997ZM25.9194 28.4083H27.4347C28.0362 28.4083 28.2728 27.9499 28.3311 27.8094C28.3893 27.6689 28.5461 27.1774 28.1207 26.752L3.24498 1.87641C3.00721 1.63858 2.74758 1.58871 2.57168 1.58871C2.08846 1.58871 1.58865 1.95293 1.58865 2.56242V4.07754L25.9194 28.4083Z" transform="translate(0 0.00292969)" fill="black"/>
<path d="M0.794326 2.892C0.591064 2.892 0.387685 2.81442 0.232646 2.65932C-0.0775496 2.34913 -0.0775496 1.84616 0.232646 1.5359L1.53595 0.232602C1.84614 -0.0775346 2.34911 -0.0775346 2.65937 0.232602C2.96956 0.542798 2.96956 1.04577 2.65937 1.35602L1.35606 2.65932C1.20085 2.81448 0.997587 2.892 0.794326 2.892Z" transform="translate(23.4961 22.478)" fill="black"/>
<path d="M0.794326 2.89193C0.590947 2.89193 0.387802 2.81435 0.232646 2.65926C-0.0775494 2.34906 -0.0775494 1.84609 0.232646 1.53584L1.53601 0.232537C1.8462 -0.0776002 2.34917 -0.0774245 2.65937 0.232537C2.96956 0.542732 2.96956 1.0457 2.65937 1.35596L1.35601 2.65926C1.20097 2.81441 0.997588 2.89193 0.794326 2.89193Z" transform="translate(19.7227 18.7048)" fill="black"/>
<path d="M0.794327 2.89191C0.590948 2.89191 0.387803 2.81433 0.232647 2.65923C-0.0775488 2.34904 -0.0775488 1.84607 0.232647 1.53582L1.53601 0.232515C1.8462 -0.0775044 2.34911 -0.0775044 2.65937 0.232515C2.96956 0.542711 2.96956 1.04568 2.65937 1.35593L1.35601 2.65923C1.20091 2.81439 0.997588 2.89191 0.794327 2.89191Z" transform="translate(15.9497 14.9316)" fill="black"/>
<path d="M0.794349 2.89206C0.591087 2.89206 0.387825 2.81442 0.232669 2.65938C-0.0775265 2.34919 -0.0775851 1.84622 0.232669 1.53596L1.53603 0.232603C1.84622 -0.0775344 2.34919 -0.0775344 2.65939 0.232603C2.96958 0.542798 2.96964 1.04577 2.65939 1.35602L1.35603 2.65938C1.20099 2.81454 0.997611 2.89206 0.794349 2.89206Z" transform="translate(12.1763 11.1584)" fill="black"/>
<path d="M0.794327 2.89193C0.590948 2.89193 0.387803 2.8143 0.232646 2.65926C-0.0775493 2.34906 -0.0775493 1.84609 0.232646 1.53584L1.53601 0.232536C1.8462 -0.0776005 2.34917 -0.0774247 2.65937 0.232536C2.96956 0.542732 2.96956 1.0457 2.65937 1.35596L1.35601 2.65926C1.20085 2.81441 0.997589 2.89193 0.794327 2.89193Z" transform="translate(8.40332 7.38525)" fill="black"/>
<path d="M0.794348 2.89206C0.591086 2.89206 0.387825 2.81448 0.232668 2.65938C-0.077527 2.34919 -0.0775856 1.84622 0.232668 1.53596L1.53603 0.232602C1.84622 -0.0775344 2.34919 -0.0775344 2.65939 0.232602C2.96958 0.542798 2.96964 1.04577 2.65939 1.35602L1.35603 2.65944C1.20099 2.81454 0.997669 2.89206 0.794348 2.89206Z" transform="translate(4.62988 3.61206)" fill="black"/>
</svg>
