<svg width="23" height="30" viewBox="0 0 23 30" fill="none" xmlns="http://www.w3.org/2000/svg">
<path d="M6.3854 12.4508C9.91196 12.4508 12.7708 9.66361 12.7708 6.22541C12.7708 2.78721 9.91196 0 6.3854 0C2.85884 0 0 2.78721 0 6.22541C0 9.66361 2.85884 12.4508 6.3854 12.4508Z" transform="translate(5.11475 5.02393)" fill="black" fill-opacity="0.3"/>
<path d="M11.5001 24.2544C11.2906 24.2544 11.0812 24.1804 10.9161 24.0324C10.8052 23.933 8.16844 21.5581 5.49268 18.102C1.84806 13.3944 0 9.14312 0 5.46624C0 3.70948 0.405192 2.02714 1.20452 0.465792C1.41721 0.0501278 1.93515 -0.118798 2.36191 0.0887408C2.78826 0.296221 2.96147 0.801475 2.7486 1.21714C2.06995 2.54306 1.7257 3.97263 1.7257 5.4663C1.7257 12.3086 9.31508 20.1335 11.5017 22.2454C12.1644 21.6092 13.3206 20.4535 14.6032 18.9674C14.9101 18.612 15.4545 18.5663 15.819 18.8655C16.1837 19.1646 16.2305 19.6954 15.9237 20.0508C13.8604 22.4413 12.1541 23.9698 12.0824 24.0337C11.9177 24.1809 11.7088 24.2544 11.5001 24.2544Z" transform="translate(0 5.74561)" fill="black"/>
<path d="M13.7761 22.419C13.6102 22.419 13.4426 22.3725 13.2947 22.2754C12.8995 22.0157 12.795 21.4929 13.0613 21.1076C15.6266 17.3957 16.9276 14.0663 16.9276 11.2119C16.9276 5.95734 12.5429 1.68252 7.15332 1.68252C5.05657 1.68252 3.05802 2.32002 1.37378 3.52617C0.989807 3.80127 0.449692 3.72064 0.167525 3.34611C-0.114643 2.97164 -0.0319462 2.44512 0.35221 2.17008C2.33466 0.75041 4.68647 0 7.15332 0C13.4944 0 18.6533 5.02963 18.6533 11.2119C18.6533 14.4073 17.2533 18.053 14.4924 22.0478C14.3259 22.2889 14.0534 22.419 13.7761 22.419Z" transform="translate(4.34668)" fill="black"/>
<path d="M8.10401 9.28822L5.00858 7.70162L1.91309 9.28822L2.50429 5.9277L0 3.54779L3.4609 3.05754L5.00858 0L6.55633 3.05754L10.0172 3.54779L7.51287 5.9277" transform="translate(6.4917 6.23315)" fill="black" fill-opacity="0.3"/>
<path d="M7.24831 0C3.25163 0 0 3.1701 0 7.0667C0 10.9633 3.25163 14.1333 7.24831 14.1333C11.245 14.1333 14.4966 10.9632 14.4966 7.06664C14.4966 3.17004 11.2451 0 7.24831 0ZM12.2298 4.7441L9.36899 4.33887L8.05371 1.74041C9.89865 2.00443 11.4501 3.16055 12.2298 4.7441ZM6.44286 1.74041L5.12758 4.33887L2.26672 4.7441C3.04663 3.16055 4.59792 2.00443 6.44286 1.74041ZM1.72576 7.0667C1.72576 6.8182 1.74457 6.57398 1.77823 6.33439L3.81681 8.27174L3.3574 10.8835C2.35038 9.90756 1.72576 8.55697 1.72576 7.0667ZM4.86602 11.9234L7.24831 10.7023L9.6306 11.9234C8.90887 12.2612 8.10095 12.4508 7.24831 12.4508C6.39568 12.4508 5.58764 12.2612 4.86602 11.9234ZM11.0946 10.9249C11.0158 10.7887 10.8978 10.672 10.7453 10.5938L7.64984 9.00715C7.39838 8.87836 7.09818 8.87836 6.84673 9.00715L5.29886 9.80057L5.59449 8.1201C5.64245 7.84717 5.5496 7.56873 5.34634 7.37549L4.09405 6.18545L5.82467 5.94029C6.10582 5.90051 6.34868 5.72836 6.47441 5.4801L7.24831 3.95115L8.02222 5.4801C8.14794 5.72836 8.39087 5.90051 8.67195 5.94029L10.4026 6.18545L9.15029 7.37549C8.8091 7.6998 8.80213 8.23242 9.13466 8.56512C9.46719 8.89781 10.0136 8.90467 10.355 8.58035L12.7183 6.33422C12.7519 6.57387 12.7708 6.81803 12.7708 7.06652C12.7708 8.57859 12.1273 9.946 11.0946 10.9249Z" transform="translate(4.25146 4.18286)" fill="black"/>
</svg>
