<svg width="30" height="30" viewBox="0 0 30 30" fill="none" xmlns="http://www.w3.org/2000/svg">
<path d="M22.409 20.9569H2.87306C1.2889 20.9569 0 19.6553 0 18.0553V0.846347C0 0.378909 0.37518 0 0.838016 0C1.30085 0 1.67603 0.378909 1.67603 0.846347V18.0554C1.67603 18.722 2.21299 19.2643 2.873 19.2643H22.4089C23.0689 19.2643 23.6058 18.722 23.6058 18.0554V4.95671C23.6058 4.48927 23.9811 4.11036 24.4439 4.11036C24.9066 4.11036 25.2819 4.48927 25.2819 4.95671V18.0554C25.2821 19.6554 23.9933 20.9569 22.409 20.9569Z" transform="translate(2.35889 9.04297)" fill="black"/>
<path d="M27.7289 9.04299H18.4799C18.3218 9.04299 18.1702 8.9795 18.0583 8.86659L14.5845 5.35829C14.3517 5.12318 13.9742 5.12318 13.7413 5.35829L10.2676 8.86659C10.1558 8.9795 10.0041 9.04299 9.84593 9.04299H0.597163C0.126709 9.04299 -0.158411 8.51839 0.0941892 8.11758L5.03334 0.2789C5.1428 0.105216 5.33252 0 5.53631 0H22.7897C22.9935 0 23.1832 0.105216 23.2927 0.2789L28.2318 8.11764C28.4844 8.51851 28.1993 9.04299 27.7289 9.04299Z" transform="translate(0.836914 0.846191)" fill="black" fill-opacity="0.3"/>
<path d="M28.5659 10.7357H19.317C18.934 10.7357 18.5738 10.5851 18.3029 10.3116L15 6.97583L11.6971 10.3115C11.4264 10.5851 11.0662 10.7358 10.6829 10.7358H1.43422C0.910617 10.7358 0.428913 10.4479 0.177016 9.98432C-0.0748815 9.52079 -0.0568931 8.95571 0.224301 8.50963L5.16328 0.670829C5.42795 0.250792 5.8803 0 6.37325 0H23.6265C24.1194 0 24.5717 0.250673 24.8365 0.670592L29.7757 8.50957C30.0568 8.95559 30.075 9.52067 29.823 9.9842C29.5713 10.4477 29.0895 10.7357 28.5659 10.7357ZM19.4172 9.04305H28.1253L23.494 1.69281H6.50608L1.87473 9.04305H10.5829L13.9858 5.6063C14.2567 5.33272 14.6169 5.182 14.9999 5.182C15.3831 5.182 15.7432 5.33266 16.0141 5.6063L19.4172 9.04305Z" fill="black"/>
<path d="M4.07002 3.2884H0.854716C0.382621 3.2884 0 2.90197 0 2.42519V0.863212C0 0.386424 0.382621 0 0.854716 0H4.07002C4.54212 0 4.92474 0.386424 4.92474 0.863212V2.42519C4.92474 2.90197 4.54206 3.2884 4.07002 3.2884Z" transform="translate(18.2153 13.1777)" fill="black" fill-opacity="0.3"/>
<path d="M4.90798 4.98115H1.69267C0.759266 4.98115 0 4.21428 0 3.27159V1.70956C0 0.766872 0.759324 0 1.69267 0H4.90798C5.84139 0 6.60065 0.766872 6.60065 1.70956V3.27153C6.60071 4.21422 5.84139 4.98115 4.90798 4.98115ZM1.69267 1.69281C1.68353 1.69281 1.67609 1.70033 1.67609 1.70968V3.27165C1.67609 3.28088 1.68353 3.28852 1.69267 3.28852H4.90798C4.91712 3.28852 4.92456 3.281 4.92456 3.27165V1.70968C4.92456 1.70045 4.91712 1.69281 4.90798 1.69281H1.69267Z" transform="translate(17.3774 12.3313)" fill="black"/>
<path d="M4.07002 3.2884H0.854716C0.382621 3.2884 0 2.90197 0 2.42519V0.863212C0 0.386424 0.382621 0 0.854716 0H4.07002C4.54212 0 4.92474 0.386424 4.92474 0.863212V2.42519C4.92474 2.90197 4.54212 3.2884 4.07002 3.2884Z" transform="translate(6.85986 13.1777)" fill="black" fill-opacity="0.3"/>
<path d="M4.90804 4.98115H1.69273C0.759324 4.98115 0 4.21428 0 3.27159V1.70956C0 0.766872 0.759324 0 1.69273 0H4.90804C5.84145 0 6.60077 0.766872 6.60077 1.70956V3.27153C6.60077 4.21422 5.84145 4.98115 4.90804 4.98115ZM1.69273 1.69281C1.68359 1.69281 1.67603 1.70033 1.67603 1.70968V3.27165C1.67603 3.28088 1.68347 3.28852 1.69273 3.28852H4.90804C4.91718 3.28852 4.92474 3.281 4.92474 3.27165V1.70968C4.92474 1.70045 4.9173 1.69281 4.90804 1.69281H1.69273Z" transform="translate(6.02197 12.3313)" fill="black"/>
<path d="M4.07002 3.2884H0.854716C0.382621 3.2884 0 2.90197 0 2.42519V0.863213C0 0.386425 0.382621 0 0.854716 0H4.07002C4.54212 0 4.92474 0.386425 4.92474 0.863213V2.42519C4.92474 2.90197 4.54206 3.2884 4.07002 3.2884Z" transform="translate(18.2153 19.406)" fill="black" fill-opacity="0.3"/>
<path d="M4.90798 4.98109H1.69267C0.759266 4.98109 0 4.2141 0 3.27153V1.70956C0 0.766871 0.759324 0 1.69267 0H4.90798C5.84139 0 6.60065 0.766871 6.60065 1.70956V3.27153C6.60071 4.2141 5.84139 4.98109 4.90798 4.98109ZM1.69267 1.69269C1.68353 1.69269 1.67609 1.70021 1.67609 1.70956V3.27153C1.67609 3.28082 1.68353 3.2884 1.69267 3.2884H4.90798C4.91712 3.2884 4.92456 3.28088 4.92456 3.27153V1.70956C4.92456 1.70033 4.91712 1.69269 4.90798 1.69269H1.69267Z" transform="translate(17.3774 18.5598)" fill="black"/>
<path d="M4.07002 3.2884H0.854716C0.382621 3.2884 0 2.90197 0 2.42519V0.863213C0 0.386425 0.382621 0 0.854716 0H4.07002C4.54212 0 4.92474 0.386425 4.92474 0.863213V2.42519C4.92474 2.90197 4.54212 3.2884 4.07002 3.2884Z" transform="translate(6.85986 19.406)" fill="black" fill-opacity="0.3"/>
<path d="M4.90804 4.98109H1.69273C0.759324 4.98109 0 4.2141 0 3.27153V1.70956C0 0.766871 0.759324 0 1.69273 0H4.90804C5.84145 0 6.60077 0.766871 6.60077 1.70956V3.27153C6.60077 4.2141 5.84145 4.98109 4.90804 4.98109ZM1.69273 1.69269C1.68359 1.69269 1.67603 1.70021 1.67603 1.70956V3.27153C1.67603 3.28082 1.68347 3.2884 1.69273 3.2884H4.90804C4.91718 3.2884 4.92474 3.28088 4.92474 3.27153V1.70956C4.92474 1.70033 4.9173 1.69269 4.90804 1.69269H1.69273Z" transform="translate(6.02197 18.5598)" fill="black"/>
<path d="M0.838017 6.09675C0.37518 6.09675 0 5.71784 0 5.25041V2.90162C0 1.30165 1.28884 0 2.87306 0C4.45727 0 5.74611 1.30165 5.74611 2.90162V3.19525C5.74611 3.66269 5.37082 4.0416 4.9081 4.0416C4.44532 4.0416 4.07008 3.66269 4.07008 3.19525V2.90162C4.07008 2.23499 3.53312 1.69275 2.87312 1.69275C2.21317 1.69275 1.67615 2.23505 1.67615 2.90162V5.25041C1.67603 5.71784 1.30085 6.09675 0.838017 6.09675Z" transform="translate(12.127 23.4922)" fill="black"/>
</svg>
